<svg xmlns="http://www.w3.org/2000/svg" viewBox="0 0 30.34292 28.87402"><defs><style>.cls-1{fill:#ffed00;}</style></defs><title>Asset 7</title><g id="Layer_2" data-name="Layer 2"><g id="Layer_14" data-name="Layer 14"><path class="cls-1" d="M28.59585,0H8.0978A1.75236,1.75236,0,0,0,6.35171,1.74756V5.75L6.3312,5.71924A1.94678,1.94678,0,0,0,3.69937,5.126L1.77652,6.28271A3.31843,3.31843,0,0,0,.25405,8.2583c-.73828,2.68848-.22265,7.28906,6.42481,13.938,4.43652,4.43115,8.4707,6.67773,11.99023,6.67773h.03418a7.31681,7.31681,0,0,0,1.917-.25537A3.31453,3.31453,0,0,0,22.591,27.104l1.1582-1.93017a1.94614,1.94614,0,0,0-.59179-2.62793l-4.61817-3.07861a1.97,1.97,0,0,0-2.62207.42626L14.6105,21.61768l-.25781-.14209a14.46887,14.46887,0,0,1-3.68457-2.85547H28.59585a1.751,1.751,0,0,0,1.74707-1.7417V1.74707A1.75245,1.75245,0,0,0,28.59585,0ZM7.7687,11.39648,6.04116,12.73926a1.95141,1.95141,0,0,0-.51367,2.48388l.13867.25147a16.66853,16.66853,0,0,0,3.39649,4.33887,16.70889,16.70889,0,0,0,4.3418,3.39843l.24511.13477a1.95043,1.95043,0,0,0,2.48535-.51025l1.3086-1.72217,4.6084,3.04053-1.16016,1.93505a1.3522,1.3522,0,0,1-.79785.62159c-2.17676.60107-6.03711.062-12.01465-5.91651-5.97559-5.97558-6.51465-9.83105-5.917-12.0083a1.36612,1.36612,0,0,1,.627-.80517l1.89356-1.166Zm-.51562,2.90674,1.73144-1.3457a1.96805,1.96805,0,0,0,.42383-2.62158L8.33023,8.71729V1.97852H28.36441V16.64258H8.82339A11.90305,11.90305,0,0,1,7.39956,14.523Z"/><path class="cls-1" d="M18.34585,10.56885a2.14913,2.14913,0,0,0,1.28125-.42578l8.17481-6.19971a.98888.98888,0,1,0-1.19336-1.57715L18.4396,8.561a.157.157,0,0,1-.17871.00585L10.089,2.36719a.989.989,0,0,0-1.57813.92334.97788.97788,0,0,0,.38281.65234l8.17871,6.2041A2.13748,2.13748,0,0,0,18.34585,10.56885Z"/><path class="cls-1" d="M9.5187,16.47412a.98684.98684,0,0,0,.72364-.314L15.27261,10.77a.98932.98932,0,0,0-1.44727-1.34473L8.796,14.81055a.98874.98874,0,0,0,.72265,1.66357Zm4.65357-6.68829h0L14.172,9.78564Z"/><path class="cls-1" d="M22.91909,9.44434a.98094.98094,0,0,0-.6875-.314,1.005,1.005,0,0,0-.71093.26563A.99226.99226,0,0,0,21.4728,10.794l5.00977,5.36621a.98909.98909,0,1,0,1.44629-1.34961Z"/></g></g></svg>