<svg xmlns="http://www.w3.org/2000/svg" viewBox="0 0 170.09327 75.63068"><defs><style>.cls-1{fill:#ffed00;}.cls-2{fill:#448bf2;}</style></defs><title>Asset 3</title><g id="Layer_2" data-name="Layer 2"><g id="Layer_14" data-name="Layer 14"><polygon class="cls-1" points="151.486 41.19 140.744 51.933 144.676 66.608 159.351 70.54 170.093 59.797 166.161 45.122 151.486 41.19"/><path class="cls-2" d="M26.95044,9.50861q.50076-.36279,1.02262-.68893L24.58014,5.42677A3.8011,3.8011,0,0,1,22.83519,7.1717l3.11594,3.11573q.47847-.40059.98-.76481Z"/><path class="cls-2" d="M23.85488,4.7015l.72526.72527A3.778,3.778,0,1,0,22.83519,7.1717l-.72543-.72539Z"/><path class="cls-2" d="M24.58014,5.42677l-.72526-.72527L22.10976,6.44631l.72543.72539A3.8011,3.8011,0,0,0,24.58014,5.42677Z"/><path class="cls-2" d="M24.58014,5.42677l-.72526-.72527L22.10976,6.44631l.72543.72539A3.8011,3.8011,0,0,0,24.58014,5.42677Z"/><path class="cls-2" d="M52.10882,7.17154a3.80058,3.80058,0,0,1-1.74466-1.745L46.97075,8.82a18.00148,18.00148,0,0,1,2.02181,1.4678Z"/><path class="cls-2" d="M52.10882,7.17154a3.80058,3.80058,0,0,1-1.74466-1.745L46.97075,8.82a18.00148,18.00148,0,0,1,2.02181,1.4678Z"/><path class="cls-2" d="M52.83405,6.44631l-.72523.72523a3.7783,3.7783,0,1,0-1.74466-1.745l.72508-.72509Z"/><path class="cls-2" d="M52.83405,6.44631l-.72523.72523a3.7783,3.7783,0,1,0-1.74466-1.745l.72508-.72509Z"/><path class="cls-2" d="M52.10882,7.17154l.72523-.72523L51.08924,4.7015l-.72508.72509A3.80058,3.80058,0,0,0,52.10882,7.17154Z"/><path class="cls-2" d="M52.10882,7.17154l.72523-.72523L51.08924,4.7015l-.72508.72509A3.80058,3.80058,0,0,0,52.10882,7.17154Z"/><polygon class="cls-2" points="37.472 16.175 37.472 16.175 31.249 22.398 37.472 22.398 37.472 16.175"/><path class="cls-2" d="M20.47964,18.18515c.02541-.07332.0508-.14665.07717-.21961C20.53042,18.03849,20.50508,18.11183,20.47964,18.18515Z"/><path class="cls-2" d="M20.35324,18.56262q.03725-.11573.076-.23091Q20.39043,18.44688,20.35324,18.56262Z"/><path class="cls-2" d="M22.81511,13.67055q.16152-.22635.331-.44791Q22.97707,13.44444,22.81511,13.67055Z"/><path class="cls-2" d="M23.20373,13.147q.17936-.233.3664-.46108Q23.38253,12.91367,23.20373,13.147Z"/><path class="cls-2" d="M19.81437,20.66844c.018-.094.03711-.18776.05663-.28137Q19.84172,20.5275,19.81437,20.66844Z"/><path class="cls-2" d="M19.97418,19.9235q.1068-.4518.23664-.89635Q20.081,19.4716,19.97418,19.9235Z"/><path class="cls-2" d="M20.23569,18.94126c.02453-.08249.05009-.16463.0758-.24671C20.28577,18.77663,20.26024,18.85876,20.23569,18.94126Z"/><path class="cls-2" d="M19.892,20.28777q.02952-.13761.061-.27464Q19.9213,20.15011,19.892,20.28777Z"/><path class="cls-2" d="M31.18394,7.23924q.62382-.23237,1.265-.41778Q31.80809,7.00679,31.18394,7.23924Z"/><path class="cls-2" d="M22.12059,14.7189q.323-.52644.6829-1.0323Q22.44322,14.192,22.12059,14.7189Z"/><path class="cls-2" d="M19.81138,20.68458q-.16163.84641-.24275,1.713h1.9558Z"/><path class="cls-2" d="M27.759,22.39762,28.776,21.38068l-6.65782-6.65781a17.76236,17.76236,0,0,0-1.55453,3.22433L25.014,22.39762Z"/><path class="cls-2" d="M37.47174,10.04988V6.11308a18.119,18.119,0,0,0-4.14927.47955c.18835-.0443.37738-.08633.56753-.12449Z"/><path class="cls-2" d="M32.93274,6.68876c.07659-.01986.15325-.03949.23016-.05833C33.086,6.64926,33.00934,6.66893,32.93274,6.68876Z"/><path class="cls-2" d="M32.91021,17.24644l-5.966-5.966h0l-.993-.993q-.61747.517-1.19511,1.09249-.628.628-1.18556,1.30564l6.95031,6.95031Z"/><path class="cls-2" d="M27.97307,8.81969l6.682,6.682,2.38943-2.38944L31.1751,7.24253a17.766,17.766,0,0,0-3.202,1.57715h0Z"/><path class="cls-2" d="M32.54458,6.79376q.12325-.03495.24716-.06791Q32.6679,6.759,32.54458,6.79376Z"/><path class="cls-2" d="M26.94417,11.28039l-.993-.993q.4785-.40069.97988-.76482-.50126.36417-.98.76481l.993.993Z"/><path class="cls-2" d="M26.94417,11.28039l-.993-.993q.4785-.40069.97988-.76482-.50126.36417-.98.76481l.993.993Z"/><path class="cls-2" d="M27.97306,8.81969h0q-.52178.32582-1.02262.68893Q27.45113,9.14573,27.97306,8.81969Z"/><path class="cls-2" d="M27.97306,8.81969h0q-.52178.32582-1.02262.68893Q27.45113,9.14573,27.97306,8.81969Z"/><path class="cls-2" d="M54.58888,18.55867l.00092.00277q-.04567-.14181-.09385-.28269l.00129.00392Q54.5441,18.42031,54.58888,18.55867Z"/><path class="cls-2" d="M55.37483,22.39762h0a17.92015,17.92015,0,0,0-.782-3.82649l0,0A17.91945,17.91945,0,0,1,55.37483,22.39762Z"/><path class="cls-2" d="M54.47381,18.2145l.00178.005q-.15362-.44568-.3304-.88243l.00471.01189Q54.32311,17.77732,54.47381,18.2145Z"/><path class="cls-2" d="M54.13168,17.30344l.0011.00264q-.05209-.12786-.10645-.25475l.0019.00454C54.06324,17.13818,54.09792,17.22061,54.13168,17.30344Z"/><path class="cls-2" d="M50.59331,11.80081c-.03092-.03295-.061-.06646-.09222-.09922.03118.03274.06127.06624.09218.09917Z"/><path class="cls-2" d="M53.58364,16.09075l0,0,.00824.01695q.12724.25616.24573.5163l.00475.01027a17.94,17.94,0,0,0-3.1636-4.74148l.00009.0001A17.96993,17.96993,0,0,1,53.58364,16.09075Z"/><path class="cls-2" d="M53.984,16.95263l.00186.00424q-.05289-.12228-.10736-.24386l.00125.00282Q53.93284,16.8338,53.984,16.95263Z"/><path class="cls-2" d="M43.50356,7.14525c.03888.01381.07759.0281.11638.04219C43.58115,7.17336,43.54245,7.15906,43.50356,7.14525Z"/><path class="cls-2" d="M43.50356,7.14525c.03888.01381.07759.0281.11638.04219C43.58115,7.17336,43.54245,7.15906,43.50356,7.14525Z"/><path class="cls-2" d="M38.78925,11.3674l4.34829-4.348a18.02139,18.02139,0,0,0-5.6658-.90635v3.93648Z"/><path class="cls-2" d="M38.78925,11.3674l4.34829-4.348a18.02139,18.02139,0,0,0-5.6658-.90635v3.93648Z"/><path class="cls-2" d="M50.50109,11.70159q-.15472-.16245-.31394-.32167c.13826.13826.27309.27892.40612.42084C50.56236,11.76783,50.53227,11.73433,50.50109,11.70159Z"/><path class="cls-2" d="M50.50109,11.70159q-.15472-.16245-.31394-.32167c.13826.13826.27309.27892.40612.42084C50.56236,11.76783,50.53227,11.73433,50.50109,11.70159Z"/><path class="cls-2" d="M37.47174,16.17484v6.22278h.02256L49.32165,10.57027q.20469.17982.4047.36636-.35943-.33532-.73379-.64883L48,11.2804,46.25515,9.53559l.7156-.71559a17.797,17.797,0,0,0-1.57661-.87671c.06893.03389.13793.06762.20643.1024Z"/><path class="cls-2" d="M37.47174,16.17484v6.22278h.02256L49.32165,10.57027q.20469.17982.4047.36636c-.23962-.22355-1.09962-.93991-1.34915-1.14885l-.64272-.46311a25.41436,25.41436,0,0,0-2.34034-1.38138c.06893.03389.13793.06762.20643.1024Z"/><path class="cls-2" d="M49.78221,10.98855q.205.19216.40494.39137C50.05407,11.24683,49.91867,11.11694,49.78221,10.98855Z"/><path class="cls-2" d="M49.78221,10.98855q.205.19216.40494.39137C50.05407,11.24683,49.91867,11.11694,49.78221,10.98855Z"/><path class="cls-2" d="M45.055,7.78071q.1002.04666.19984.09453Q45.15516,7.82733,45.055,7.78071Z"/><path class="cls-2" d="M45.055,7.78071q.1002.04666.19984.09453Q45.15516,7.82733,45.055,7.78071Z"/><path class="cls-2" d="M53.58364,16.09075a17.96993,17.96993,0,0,0-2.90477-4.19788c.13.14061.25836.28236.38341.42638L40.98391,22.39762h6.29277Z"/><path class="cls-2" d="M53.58364,16.09075a17.96993,17.96993,0,0,0-2.90477-4.19788c.13.14061.25836.28236.38341.42638L40.98391,22.39762h6.29277Z"/><path class="cls-2" d="M55.37483,22.39762a17.91945,17.91945,0,0,0-.782-3.82646l-3.82646,3.82646Z"/><path class="cls-2" d="M55.37483,22.39762a17.91945,17.91945,0,0,0-.782-3.82646l-3.82646,3.82646Z"/><path class="cls-2" d="M44.70972,7.624c.0619.02724.12341.05536.185.08331C44.83311,7.67935,44.77163,7.6512,44.70972,7.624Z"/><path class="cls-2" d="M44.70972,7.624c.0619.02724.12341.05536.185.08331C44.83311,7.67935,44.77163,7.6512,44.70972,7.624Z"/><path class="cls-2" d="M43.87392,7.2818c.04628.01762.09255.03526.13868.05326Q43.94339,7.30808,43.87392,7.2818Z"/><path class="cls-2" d="M43.87392,7.2818c.04628.01762.09255.03526.13868.05326Q43.94339,7.30808,43.87392,7.2818Z"/><path class="cls-2" d="M44.25321,7.43126c.04378.01783.08777.03516.13141.05334C44.341,7.46644,44.297,7.44908,44.25321,7.43126Z"/><path class="cls-2" d="M44.25321,7.43126c.04378.01783.08777.03516.13141.05334C44.341,7.46644,44.297,7.44908,44.25321,7.43126Z"/><path class="cls-2" d="M54.02823,17.05587c.035.08231.06971.16474.10345.24757C54.09792,17.22061,54.06324,17.13818,54.02823,17.05587Z"/><path class="cls-2" d="M54.02823,17.05587c.035.08231.06971.16474.10345.24757C54.09792,17.22061,54.06324,17.13818,54.02823,17.05587Z"/><path class="cls-2" d="M53.5919,16.10768q.12729.25617.24573.5163Q53.71879,16.364,53.5919,16.10768Z"/><path class="cls-2" d="M53.5919,16.10768q.12729.25617.24573.5163Q53.71879,16.364,53.5919,16.10768Z"/><path class="cls-2" d="M54.49724,18.28267q.04686.13763.09164.276Q54.54426,18.42024,54.49724,18.28267Z"/><path class="cls-2" d="M54.49724,18.28267q.04686.13763.09164.276Q54.54426,18.42024,54.49724,18.28267Z"/><path class="cls-2" d="M54.1499,17.349q.17311.42833.32391.86551Q54.323,17.77746,54.1499,17.349Z"/><path class="cls-2" d="M54.1499,17.349q.17311.42833.32391.86551Q54.323,17.77746,54.1499,17.349Z"/><path class="cls-2" d="M53.87972,16.71583q.0531.118.10425.2368Q53.93258,16.83391,53.87972,16.71583Z"/><path class="cls-2" d="M53.87972,16.71583q.0531.118.10425.2368Q53.93258,16.83391,53.87972,16.71583Z"/><polygon class="cls-2" points="53.584 16.091 53.584 16.091 53.584 16.091 53.584 16.091"/><polygon class="cls-2" points="53.584 16.091 53.584 16.091 53.584 16.091 53.584 16.091"/><polygon class="cls-2" points="47.277 22.398 53.584 16.091 53.584 16.091 47.277 22.398 47.277 22.398"/><polygon class="cls-2" points="47.277 22.398 53.584 16.091 53.584 16.091 47.277 22.398 47.277 22.398"/><polygon class="cls-2" points="47.277 22.398 53.584 16.091 53.584 16.091 47.277 22.398 47.277 22.398"/><path class="cls-2" d="M32.44893,6.82146l.09565-.0277Z"/><path class="cls-2" d="M32.79174,6.72585q.07041-.01884.141-.03709Q32.86215,6.70706,32.79174,6.72585Z"/><path class="cls-2" d="M19.81117,20.68436l.00021.00022.003-.01614Z"/><path class="cls-2" d="M23.14613,13.22264l.0576-.07562Z"/><path class="cls-2" d="M19.871,20.38707l.021-.0993Z"/><path class="cls-2" d="M33.1629,6.63043c.05307-.013.10635-.02529.15957-.0378C33.26925,6.60514,33.216,6.61743,33.1629,6.63043Z"/><polygon class="cls-2" points="31.175 7.242 31.175 7.243 31.184 7.239 31.175 7.242"/><polygon class="cls-2" points="23.57 12.686 23.57 12.686 23.57 12.686 23.57 12.686"/><polygon class="cls-2" points="22.118 14.723 22.118 14.723 22.121 14.719 22.118 14.723"/><path class="cls-2" d="M19.953,20.01313l.02123-.08963Z"/><path class="cls-2" d="M20.31149,18.69455c.0138-.044.02762-.088.04175-.13193Q20.332,18.62848,20.31149,18.69455Z"/><path class="cls-2" d="M20.42926,18.33171c.0165-.049.03345-.09775.05038-.14656C20.46271,18.234,20.44576,18.28275,20.42926,18.33171Z"/><path class="cls-2" d="M20.56335,17.94693l-.00654.01861.00681-.01834Z"/><path class="cls-2" d="M20.21082,19.02715l.02487-.08589Z"/><path class="cls-2" d="M22.80349,13.6866l.01162-.016Z"/><path class="cls-2" d="M26.9311,9.52262l.01934-.014Z"/><path class="cls-2" d="M26.9311,9.52262l.01934-.014Z"/><polygon class="cls-2" points="45.601 8.046 37.472 16.175 37.472 16.175 45.601 8.046"/><polygon class="cls-2" points="45.601 8.046 37.472 16.175 37.472 16.175 45.601 8.046"/><polygon class="cls-2" points="45.601 8.046 37.472 16.175 37.472 16.175 45.601 8.046"/><polygon class="cls-2" points="37.472 10.05 37.472 10.05 38.789 11.367 37.472 10.05"/><polygon class="cls-2" points="37.472 10.05 37.472 10.05 38.789 11.367 37.472 10.05"/><polygon class="cls-2" points="37.472 10.05 37.472 10.05 38.789 11.367 37.472 10.05"/><path class="cls-2" d="M43.61994,7.18744q.12736.04622.254.09436Q43.74732,7.23362,43.61994,7.18744Z"/><path class="cls-2" d="M43.61994,7.18744q.12736.04622.254.09436Q43.74732,7.23362,43.61994,7.18744Z"/><path class="cls-2" d="M44.38462,7.4846q.16329.068.3251.13938Q44.54784,7.55271,44.38462,7.4846Z"/><path class="cls-2" d="M44.38462,7.4846q.16329.068.3251.13938Q44.54784,7.55271,44.38462,7.4846Z"/><path class="cls-2" d="M44.89471,7.70729q.08025.03639.16024.07342C45.00169,7.7559,44.94821,7.73157,44.89471,7.70729Z"/><path class="cls-2" d="M44.89471,7.70729q.08025.03639.16024.07342C45.00169,7.7559,44.94821,7.73157,44.89471,7.70729Z"/><path class="cls-2" d="M45.25479,7.87524c.04659.02239.093.04525.13935.06805C45.34775,7.92048,45.30137,7.89764,45.25479,7.87524Z"/><path class="cls-2" d="M45.25479,7.87524c.04659.02239.093.04525.13935.06805C45.34775,7.92048,45.30137,7.89764,45.25479,7.87524Z"/><path class="cls-2" d="M43.13762,7.01935l-.00008.00008q.18379.06078.366.12582Q43.32125,7.0805,43.13762,7.01935Z"/><path class="cls-2" d="M43.13762,7.01935l-.00008.00008q.18379.06078.366.12582Q43.32125,7.0805,43.13762,7.01935Z"/><path class="cls-2" d="M44.0126,7.33506c.08048.03138.1606.06366.24061.0962Q44.13321,7.38239,44.0126,7.33506Z"/><path class="cls-2" d="M44.0126,7.33506c.08048.03138.1606.06366.24061.0962Q44.13321,7.38239,44.0126,7.33506Z"/><path class="cls-2" d="M49.72635,10.93663l.05586.05192Z"/><path class="cls-2" d="M49.72635,10.93663l.05586.05192Z"/><path class="cls-2" d="M50.59331,11.80081c.02866.03053.057.06125.08547.092Q50.63618,11.84669,50.59331,11.80081Z"/><path class="cls-2" d="M50.59331,11.80081c.02866.03053.057.06125.08547.092Q50.63618,11.84669,50.59331,11.80081Z"/><path class="cls-2" d="M50.67887,11.89287l-.00009-.0001c-.02842-.03071-.05681-.06143-.08547-.092l0,0Q50.63632,11.84665,50.67887,11.89287Z"/><path class="cls-2" d="M50.67887,11.89287l-.00009-.0001c-.02842-.03071-.05681-.06143-.08547-.092l0,0Q50.63632,11.84665,50.67887,11.89287Z"/><path class="cls-2" d="M50.67887,11.89287l-.00009-.0001c-.02842-.03071-.05681-.06143-.08547-.092l0,0Q50.63632,11.84665,50.67887,11.89287Z"/><path class="cls-2" d="M54.13278,17.30608l.01241.031Z"/><path class="cls-2" d="M54.13278,17.30608l.01241.031Z"/><polygon class="cls-2" points="54.593 18.571 54.59 18.561 54.593 18.571 54.593 18.571"/><polygon class="cls-2" points="54.593 18.571 54.59 18.561 54.593 18.571 54.593 18.571"/><path class="cls-2" d="M54.47559,18.21953l.02036.05922Z"/><path class="cls-2" d="M54.47559,18.21953l.02036.05922Z"/><path class="cls-2" d="M53.98583,16.95687l.0405.09446Z"/><path class="cls-2" d="M53.98583,16.95687l.0405.09446Z"/><path class="cls-2" d="M53.84238,16.63425l.03609.07876Z"/><path class="cls-2" d="M53.84238,16.63425l.03609.07876Z"/><path class="cls-2" d="M53.5919,16.10768l-.00824-.01695,0,0Z"/><path class="cls-2" d="M53.5919,16.10768l-.00824-.01695,0,0Z"/><path class="cls-2" d="M53.5919,16.10768l-.00824-.01695,0,0Z"/><path class="cls-2" d="M54.49724,18.28267l-.00129-.00392-.02036-.05922-.00178-.005Z"/><path class="cls-2" d="M54.49724,18.28267l-.00129-.00392-.02036-.05922-.00178-.005Z"/><path class="cls-2" d="M54.49724,18.28267l-.00129-.00392-.02036-.05922-.00178-.005Z"/><path class="cls-2" d="M54.59283,18.57116l0,0-.00307-.00969-.00092-.00277Z"/><path class="cls-2" d="M54.59283,18.57116l0,0-.00307-.00969-.00092-.00277Z"/><path class="cls-2" d="M54.59283,18.57116l0,0-.00307-.00969-.00092-.00277Z"/><path class="cls-2" d="M53.87972,16.71583l-.00125-.00282-.03609-.07876-.00475-.01027C53.85164,16.65461,53.86589,16.68513,53.87972,16.71583Z"/><path class="cls-2" d="M53.87972,16.71583l-.00125-.00282-.03609-.07876-.00475-.01027C53.85164,16.65461,53.86589,16.68513,53.87972,16.71583Z"/><path class="cls-2" d="M53.87972,16.71583l-.00125-.00282-.03609-.07876-.00475-.01027C53.85164,16.65461,53.86589,16.68513,53.87972,16.71583Z"/><path class="cls-2" d="M54.1499,17.349l-.00471-.01189-.01241-.031-.0011-.00264Z"/><path class="cls-2" d="M54.1499,17.349l-.00471-.01189-.01241-.031-.0011-.00264Z"/><path class="cls-2" d="M54.1499,17.349l-.00471-.01189-.01241-.031-.0011-.00264Z"/><path class="cls-2" d="M54.02823,17.05587l-.0019-.00454-.0405-.09446-.00186-.00424Z"/><path class="cls-2" d="M54.02823,17.05587l-.0019-.00454-.0405-.09446-.00186-.00424Z"/><path class="cls-2" d="M54.02823,17.05587l-.0019-.00454-.0405-.09446-.00186-.00424Z"/><path class="cls-2" d="M55.4543,24.09564q0-.85588-.07946-1.698h0Q55.45316,23.23924,55.4543,24.09564Z"/><path class="cls-2" d="M55.4543,24.09564q0-.85588-.07946-1.698h0Q55.45316,23.23924,55.4543,24.09564Z"/><polygon class="cls-2" points="37.494 22.398 37.472 22.398 37.472 22.42 37.494 22.398"/><polygon class="cls-2" points="37.494 22.398 37.472 22.398 37.472 22.42 37.494 22.398"/><polygon class="cls-2" points="37.494 22.398 37.472 22.398 37.472 22.42 37.494 22.398"/><path class="cls-2" d="M57.78582,24.891H14.0933V17.8438a2.349,2.349,0,0,0-2.34906-2.34906H2.34906a2.34906,2.34906,0,0,0,0,4.69812H9.39518V54.48914a2.349,2.349,0,0,0,2.34906,2.34906H50.79889a2.3489,2.3489,0,0,0,2.27542-1.76567l6.98693-27.2491A2.35009,2.35009,0,0,0,57.78582,24.891Zm-8.80968,27.2491H14.0933V29.5891H54.75847ZM16.44236,61.53632a7.04718,7.04718,0,1,0,7.04718,7.04718A7.05518,7.05518,0,0,0,16.44236,61.53632Zm0,9.39624a2.34906,2.34906,0,1,1,2.34906-2.34906A2.35173,2.35173,0,0,1,16.44236,70.93256Zm25.02818-9.39624a7.04718,7.04718,0,1,0,7.04718,7.04718A7.05518,7.05518,0,0,0,41.47054,61.53632Zm0,9.39624A2.34906,2.34906,0,1,1,43.8196,68.5835,2.35173,2.35173,0,0,1,41.47054,70.93256Z"/><path class="cls-2" d="M79.42042,23.71271a1.17044,1.17044,0,0,0-.0905-.45361,57.47044,57.47044,0,0,1,6.83544-.52343c1.90557-.04728,3.35365-.11943,4.31157-.21522,1.68351-.19517,2.03682-1.06289,2.03682-1.75661a1.34657,1.34657,0,0,0-.96383-1.33035,9.8277,9.8277,0,0,0-2.9428-.28785,72.67426,72.67426,0,0,0-12.87127,1.21093,89.84,89.84,0,0,0-9.28094,2.185c-1.47358.47554-1.783,1.30984-1.783,1.926a1.43838,1.43838,0,0,0,.33029.94066,1.58837,1.58837,0,0,0,1.2876.67754,4.56435,4.56435,0,0,0,1.46207-.32827,73.20221,73.20221,0,0,1,7.67766-1.68585l-.09548.15178c-2.27164,3.65036-3.72562,6.01048-4.32,7.01147-1.4941,2.46836-3.14372,5.54443-4.90312,9.1416-2.80969,5.71611-4.17566,9.23989-4.17566,10.77271a2.29953,2.29953,0,0,0,.40619,1.29164,1.88831,1.88831,0,0,0,1.61291.96352c.77784,0,1.31061-.62172,1.5759-1.81834A71.52582,71.52582,0,0,1,70.05489,40.43a120.00575,120.00575,0,0,1,8.53046-14.82925A3.7908,3.7908,0,0,0,79.42042,23.71271Z"/><path class="cls-2" d="M88.11136,28.03719a4.03913,4.03913,0,0,0-1.38183,2.7293,1.51337,1.51337,0,0,0,.39406,1.05542,1.38405,1.38405,0,0,0,1.08263.49187A3.11555,3.11555,0,0,0,90.467,30.99757a3.972,3.972,0,0,0,1.15012-2.49588,1.3979,1.3979,0,0,0-1.52365-1.54729A2.906,2.906,0,0,0,88.11136,28.03719Z"/><path class="cls-2" d="M86.92267,36.99452a1.3346,1.3346,0,0,0-.2768-.79028l-.02177-.02753a1.29126,1.29126,0,0,0-1.013-.47009,1.65249,1.65249,0,0,0-1.19989.58361,13.28176,13.28176,0,0,0-1.32709,1.739,33.31729,33.31729,0,0,0-3.87429,7.083c-1.3641,3.62594-1.5392,4.51311-1.5392,4.881a1.4325,1.4325,0,0,0,.35176.93786,1.358,1.358,0,0,0,1.12462.56232c.52032,0,1.22352-.26048,1.62007-1.50142a52.30463,52.30463,0,0,1,1.94352-5.15037,43.1888,43.1888,0,0,1,3.446-6.16926A3.36153,3.36153,0,0,0,86.92267,36.99452Z"/><path class="cls-2" d="M103.44119,51.98379a2.33606,2.33606,0,0,0,2.03372,1.46767,1.43113,1.43113,0,0,0,1.05713-.46419,1.18028,1.18028,0,0,0,.41924-.87084,2.18849,2.18849,0,0,0-.39592-1.08714,4.30427,4.30427,0,0,1-.64193-2.23914c0-2.54813,1.47855-5.56635,4.39524-8.97132a3.185,3.185,0,0,0,.93646-1.97509,1.31548,1.31548,0,0,0-1.38245-1.47653c-.66993,0-1.89345.35968-4.94293,3.08276a2.67935,2.67935,0,0,0,.49824-1.34669,1.49169,1.49169,0,0,0-.46559-1.0817,1.28208,1.28208,0,0,0-.91655-.41847c-.59963,0-1.208.47569-1.91615,1.50017-.60337.88934-1.4375,2.33229-2.47784,4.28731-2.50117,4.6569-2.91474,6.1333-2.95334,6.78621a1.61281,1.61281,0,0,0-.33189-.21357l-.00373-.00171a5.02953,5.02953,0,0,1-.82481-.43837,1.84,1.84,0,0,1-.46652-1.31357,9.83975,9.83975,0,0,1,.70413-3.1,17.78844,17.78844,0,0,1,1.33269-2.98976,4.19616,4.19616,0,0,0,.72311-1.86048,1.78939,1.78939,0,0,0-.29422-.92107,3.88769,3.88769,0,0,0,.34149-1.39085,2.12034,2.12034,0,0,0-.71377-1.56564,2.79414,2.79414,0,0,0-1.96591-.73663,6.1157,6.1157,0,0,0-3.55115,1.31512,15.79443,15.79443,0,0,0-4.57282,5.56215,13.16753,13.16753,0,0,0-1.704,5.99384,4.103,4.103,0,0,0,.51224,2.07446,2.63957,2.63957,0,0,0,2.37987,1.431,4.46193,4.46193,0,0,0,3.3098-2.0135q.307-.38371.61984-.839a3.9169,3.9169,0,0,0,.85467,2.39854A3.20226,3.20226,0,0,0,95.59,51.87089a1.67341,1.67341,0,0,0,1.12649-.418,1.37151,1.37151,0,0,0,.47873-.95386,1.32029,1.32029,0,0,0,.94291.381c.71129,0,1.35446-.49964,1.918-1.49612a22.64957,22.64957,0,0,1,4.0329-5.66682,12.259,12.259,0,0,0-1.34109,5.23824A6.223,6.223,0,0,0,103.44119,51.98379ZM95.08241,38.55363a2.93057,2.93057,0,0,0-.46154.5127,20.63862,20.63862,0,0,0-1.23908,2.27911,39.67744,39.67744,0,0,1-2.07291,3.84489l-.00279.0042c-1.19553,1.90542-1.9233,2.18984-2.2508,2.18984-.21367,0-.2712-.079-.29951-.11772a1.05736,1.05736,0,0,1-.13466-.62327c0-1.50421.75171-3.39439,2.23369-5.6172,1.30221-1.94585,2.48282-2.93254,3.50854-2.93254a.704.704,0,0,1,.43044.155A1.44757,1.44757,0,0,1,95.08241,38.55363Z"/><path class="cls-2" d="M125.91872,41.28805a.9434.9434,0,0,0-1.02852-1.00472,1.4512,1.4512,0,0,0-1.1831.85233,24.82881,24.82881,0,0,1-2.52542,3.49407,15.64918,15.64918,0,0,1-2.16932,2.11209c.42049-.84393.8783-1.682,1.36939-2.5063.93118-1.5829,1.61323-2.67346,2.02034-3.23189a1.26692,1.26692,0,0,0,.33185-.75358,1.35078,1.35078,0,0,0-.45532-.87892,6.73087,6.73087,0,0,0,.6438-2.58888,2.23781,2.23781,0,0,0-.57786-1.6423,2.57664,2.57664,0,0,0-1.913-.82512,7.47033,7.47033,0,0,0-4.41825,1.96576,19.13241,19.13241,0,0,0-4.88508,6.2327,10.40365,10.40365,0,0,0-1.44466,4.57826,3.52473,3.52473,0,0,0,.41023,1.63671,2.19085,2.19085,0,0,0,1.98644,1.27888,4.65452,4.65452,0,0,0,2.72012-1.16318q-.2636.56215-.57351,1.21855c-3.54,1.96591-5.51395,3.11137-6.02432,3.49423-3.29083,2.34612-4.95941,4.86175-4.95941,7.47721a3.64412,3.64412,0,0,0,.43666,1.78288,2.73615,2.73615,0,0,0,2.57363,1.41589c2.10711,0,4.24066-1.7367,6.52381-5.31055.81423-1.28432,2.08876-3.73479,3.78907-7.28438A24.77352,24.77352,0,0,0,124.95582,43.65,5.30353,5.30353,0,0,0,125.91872,41.28805Zm-9.08687,1.03816a.90463.90463,0,0,0,.23451.555c-.05692.09159-.139.22-.2569.4a17.51536,17.51536,0,0,1-1.56191,2.067c-1.217,1.3907-1.779,1.54076-1.964,1.54076-.14649,0-.18443-.04292-.1975-.05754a.50736.50736,0,0,1-.07184-.32967,5.4686,5.4686,0,0,1,.57382-1.98364,16.83427,16.83427,0,0,1,3.4-4.98321c1.52365-1.56175,2.26449-1.795,2.57052-1.795a.79027.79027,0,0,1,.102.00949.33933.33933,0,0,1,.02581.1653,2.77888,2.77888,0,0,1-.52468,1.27313,10.91937,10.91937,0,0,1-1.82969,2.25811A1.31505,1.31505,0,0,0,116.83185,42.32621Zm.45564.8119-.00249-.0028.00155.00172ZM106.81941,60.99648a.35145.35145,0,0,1-.335-.20061.57543.57543,0,0,1-.07588-.30448,1.85219,1.85219,0,0,1,.11725-.55936,7.29893,7.29893,0,0,1,1.48882-2.48406,15.15587,15.15587,0,0,1,4.11159-3.30342c-.67117,1.26644-1.43408,2.58374-2.27786,3.9312l-.00031.00047C108.34182,60.48984,107.3696,60.99648,106.81941,60.99648Z"/><path class="cls-2" d="M146.80666,32.31378a3.11555,3.11555,0,0,0,2.26075-1.31621,3.972,3.972,0,0,0,1.15012-2.49588,1.3979,1.3979,0,0,0-1.52365-1.54729,2.90359,2.90359,0,0,0-1.98115,1.082A4.03959,4.03959,0,0,0,145.33,30.76649a1.51337,1.51337,0,0,0,.394,1.05542A1.38407,1.38407,0,0,0,146.80666,32.31378Z"/><path class="cls-2" d="M145.52311,36.99452a1.33462,1.33462,0,0,0-.27681-.79028l-.02177-.02753a1.29126,1.29126,0,0,0-1.013-.47009,1.65245,1.65245,0,0,0-1.19988.58361,13.28068,13.28068,0,0,0-1.3271,1.739,33.3172,33.3172,0,0,0-3.87428,7.083c-.738,1.96185-1.12634,3.11786-1.32885,3.82773-.02659-.01784-.05337-.0368-.07942-.05219l-.00778-.00467a4.57638,4.57638,0,0,1-1.1551-.77146,3.56548,3.56548,0,0,1-.68609-2.22328,7.22759,7.22759,0,0,1,1.05184-3.19877c1.51-2.75759,1.68476-3.62858,1.68476-4.04379a1.50518,1.50518,0,0,0-.42951-1.04484,1.315,1.315,0,0,0-.97627-.45533,2.2195,2.2195,0,0,0-1.66827,1.01189,8.56069,8.56069,0,0,0-1.17159,2.21549,21.67868,21.67868,0,0,1-1.8695,3.879c-1.81538,2.91217-2.67346,3.2266-2.958,3.2266a.154.154,0,0,1-.08708-.01742.36134.36134,0,0,1-.04043-.20449,8.27129,8.27129,0,0,1,1.128-3.3734,23.829,23.829,0,0,1,2.912-4.20474,3.15655,3.15655,0,0,0,.985-1.76391,1.24541,1.24541,0,0,0-.37135-.846c-.688-.68734-1.56813-.52935-2.74282.465a12.86078,12.86078,0,0,0-2.476,2.91046c-1.77246,2.69119-2.671,5.12611-2.671,7.23727a3.74473,3.74473,0,0,0,.51628,1.98737,2.47147,2.47147,0,0,0,2.187,1.25852A4.244,4.244,0,0,0,130.61,49.26756c.335-.36575.70444-.81113,1.10347-1.33036.004.02472.00778.0451.01151.06236a4.60531,4.60531,0,0,0,1.24094,2.70192,3.46948,3.46948,0,0,0,2.46944,1.075,1.788,1.788,0,0,0,1.18185-.41474,1.64227,1.64227,0,0,0,.20791-.21151,1.35155,1.35155,0,0,0,.92231.34323c.52033,0,1.22353-.26048,1.62007-1.50142a52.30463,52.30463,0,0,1,1.94352-5.15037,43.1888,43.1888,0,0,1,3.446-6.16926A3.36148,3.36148,0,0,0,145.52311,36.99452Z"/><path class="cls-2" d="M157.68993,34.77762l-.00031-.00031a4.18977,4.18977,0,0,0-2.461-.604,9.57366,9.57366,0,0,0-5.55095,1.83047c-1.83622,1.29723-2.76709,2.82913-2.76709,4.55307a7.448,7.448,0,0,0,1.6434,4.20878,4.35718,4.35718,0,0,1,1.04593,2.30228,1.55759,1.55759,0,0,1-.31505,1.02261,1.33333,1.33333,0,0,1-1.08637.44972,1.879,1.879,0,0,1-1.35322-.57708,2.16215,2.16215,0,0,1-.68547-1.6266,4.54168,4.54168,0,0,1,.48331-2.15594,1.67188,1.67188,0,0,0,.27183-.79293.92247.92247,0,0,0-1.05216-.934A2.0976,2.0976,0,0,0,144.22,43.46328,5.458,5.458,0,0,0,143.183,46.832a5.05882,5.05882,0,0,0,.91376,3.00781,4.44222,4.44222,0,0,0,3.81862,1.8188,5.10981,5.10981,0,0,0,2.82088-.80443,4.12934,4.12934,0,0,0,2.05269-3.64461,6.73435,6.73435,0,0,0-1.47171-3.657,5.51206,5.51206,0,0,1-1.17035-2.80705,3.11452,3.11452,0,0,1,1.70622-2.58887,5.13678,5.13678,0,0,1,2.76211-1.03023.91714.91714,0,0,1,.55329.12876.47958.47958,0,0,1,.11694.37632,1.11509,1.11509,0,0,1-.47834.831,3.131,3.131,0,0,1-1.40267.72342,9.44368,9.44368,0,0,0-1.72239.44552,1.42516,1.42516,0,0,0-.80832,1.30284,1.284,1.284,0,0,0,1.453,1.335,5.84346,5.84346,0,0,0,1.98116-.43138,7.329,7.329,0,0,0,3.1686-2.12468,4.72844,4.72844,0,0,0,1.13955-2.97826A2.25382,2.25382,0,0,0,157.68993,34.77762Z"/></g></g></svg>