<svg xmlns="http://www.w3.org/2000/svg" viewBox="0 0 168.2768 187.56914"><defs><style>.cls-1{fill:none;stroke:#daecf7;stroke-miterlimit:10;stroke-width:2px;opacity:0.42;}.cls-2{fill:#f7b100;}</style></defs><title>Asset 12</title><g id="Layer_2" data-name="Layer 2"><g id="Layer_14" data-name="Layer 14"><path class="cls-1" d="M167.2768,129.78457v-72a20.78458,20.78458,0,0,0-10.39228-18l-62.35383-36a20.7846,20.7846,0,0,0-20.78457,0l-62.35383,36A20.78459,20.78459,0,0,0,1,57.78457v72a20.78459,20.78459,0,0,0,10.39229,18l62.35383,36a20.78455,20.78455,0,0,0,20.78457,0l62.35383-36A20.78458,20.78458,0,0,0,167.2768,129.78457Z"/><path class="cls-2" d="M114.29957,70.579a1.20041,1.20041,0,0,0-.84232-.34908,18.5926,18.5926,0,0,1-5.88078-.946,4.17688,4.17688,0,0,0-3.04179-4.62862,2.69022,2.69022,0,0,0,.10616-.73986,3.57295,3.57295,0,0,0-6.6054-1.89076A18.456,18.456,0,0,1,94.8713,51.64395V49.976a1.19183,1.19183,0,0,0-1.1914-1.19141H74.61739A1.19183,1.19183,0,0,0,73.426,49.976v1.668a18.456,18.456,0,0,1-3.16414,10.38073,3.57295,3.57295,0,0,0-6.6054,1.89076,3.10139,3.10139,0,0,0,.09174.74391,4.17674,4.17674,0,0,0-3.02736,4.62457,18.59266,18.59266,0,0,1-5.88079.946,1.19185,1.19185,0,0,0-1.1914,1.19141,36.37818,36.37818,0,0,0,2.72713,13.831,1.19142,1.19142,0,0,0,2.2041-.90546A33.93768,33.93768,0,0,1,56.0505,72.57816a20.81972,20.81972,0,0,0,5.68539-1.12469,4.18506,4.18506,0,0,0,1.63712,1.127,4.16685,4.16685,0,0,0,2.46966,5.51264,4.7647,4.7647,0,0,0,5.98611,6.38821,9.25627,9.25627,0,0,0,6.45778,3.719,5.95552,5.95552,0,0,0,11.72559-.00811A9.2542,9.2542,0,0,0,96.42228,84.464a4.76368,4.76368,0,0,0,6.03233-6.37093,4.16684,4.16684,0,0,0,2.46966-5.51263,4.18267,4.18267,0,0,0,1.63712-1.127,20.81935,20.81935,0,0,0,5.68539,1.12469,34.26763,34.26763,0,0,1-17.18843,28.43531l-10.90971,6.20842-10.90971-6.20842A33.94826,33.94826,0,0,1,63.8983,93.1907a1.19076,1.19076,0,1,0-1.8312,1.52261,36.34253,36.34253,0,0,0,9.99353,8.37083l11.49826,6.5444a1.19228,1.19228,0,0,0,1.17949,0l11.49827-6.5444a36.42283,36.42283,0,0,0,18.412-31.66283,1.20041,1.20041,0,0,0-.34908-.84232ZM105.196,68.3022a1.78707,1.78707,0,0,1-1.17591,2.07186,1.76936,1.76936,0,0,1-.57069.09412,1.78661,1.78661,0,0,1-.51349-3.498,1.74488,1.74488,0,0,1,.51349-.07625,1.78975,1.78975,0,0,1,1.7466,1.40825Zm-5.32082-4.38676a1.19347,1.19347,0,1,1,.61334,1.04093c-.058-.05647-.11616-.11247-.17371-.17q-.14958-.14976-.295-.30238A1.18374,1.18374,0,0,1,99.87521,63.91544ZM67.23066,62.724a1.191,1.191,0,0,1,1.04677,1.75983q-.14583.15244-.295.3025c-.05778.05742-.11628.11378-.17442.17049a1.19113,1.19113,0,1,1-.57736-2.23282ZM63.10125,68.3022a1.78974,1.78974,0,0,1,1.7466-1.40824,1.74466,1.74466,0,0,1,.5135.07625,1.78652,1.78652,0,0,1-.5135,3.498,1.76925,1.76925,0,0,1-.57068-.09412,1.78707,1.78707,0,0,1-1.17592-2.07186Zm4.12941,4.07223a1.78711,1.78711,0,1,1-1.78711,1.78711A1.78914,1.78914,0,0,1,67.23066,72.37443Zm.59571,7.625a2.38281,2.38281,0,1,1,2.38281,2.38282A2.38552,2.38552,0,0,1,67.82637,79.99943ZM84.14864,90.72209a3.57422,3.57422,0,1,1,3.57422-3.57422A3.57828,3.57828,0,0,1,84.14864,90.72209Zm5.79965-4.92956a5.95554,5.95554,0,0,0-11.60156.01,6.87812,6.87812,0,0,1-4.55-2.67137,4.76066,4.76066,0,0,0-2.56819-7.78645,4.16636,4.16636,0,0,0-2.52293-5.08278,4.16807,4.16807,0,0,0,.07864-2.95814,14.14109,14.14109,0,0,0,1.37691-1.34569A20.86681,20.86681,0,0,0,75.36833,55.933h3.419a1.19141,1.19141,0,1,0,0-2.38281H75.72218c.057-.63061.08661-2.38281.08661-2.38281h16.6797s.02966,1.7522.08661,2.38281H89.51a1.19141,1.19141,0,1,0,0,2.38281h3.419a20.86787,20.86787,0,0,0,5.20716,10.0251A14.14,14.14,0,0,0,99.513,67.3038a4.16807,4.16807,0,0,0,.07864,2.95814,4.16636,4.16636,0,0,0-2.52293,5.08278,4.76062,4.76062,0,0,0-2.60024,7.74939,6.88022,6.88022,0,0,1-4.5202,2.69842Zm8.13981-3.41028a2.38282,2.38282,0,1,1,2.38281-2.38282A2.38552,2.38552,0,0,1,98.0881,82.38225Zm2.97852-6.4336a1.78711,1.78711,0,1,1,1.78711-1.78711A1.78914,1.78914,0,0,1,101.06662,75.94865Z"/></g></g></svg>