<svg xmlns="http://www.w3.org/2000/svg" viewBox="0 0 168.2768 187.56914"><defs><style>.cls-1{fill:none;stroke:#daecf7;stroke-miterlimit:10;stroke-width:2px;opacity:0.42;}.cls-2{fill:#f7b100;}</style></defs><title>Asset 14</title><g id="Layer_2" data-name="Layer 2"><g id="Layer_14" data-name="Layer 14"><path class="cls-1" d="M167.2768,129.78457v-72a20.78458,20.78458,0,0,0-10.39228-18l-62.35383-36a20.7846,20.7846,0,0,0-20.78457,0l-62.35383,36A20.78459,20.78459,0,0,0,1,57.78457v72a20.78459,20.78459,0,0,0,10.39229,18l62.35383,36a20.78455,20.78455,0,0,0,20.78457,0l62.35383-36A20.78458,20.78458,0,0,0,167.2768,129.78457Z"/><path class="cls-2" d="M61.92532,95.19939a1.32606,1.32606,0,1,1,1.303-1.0885A1.34089,1.34089,0,0,1,61.92532,95.19939Z"/><path class="cls-2" d="M119.76529,94.187c-.9159-3.2985-1.89662-6.66685-4.56357-8.22742-3.30288-1.93267-7.61271-2.01354-11.41536-2.085-3.13147-.05859-6.36951-.11931-7.29456-1.385-.85517-1.1699-1.79029-2.61725-2.873-4.29327A103.00373,103.00373,0,0,0,81.93743,62.70212,70.302,70.302,0,0,0,60.00007,46.90838a1.32512,1.32512,0,0,0-1.69021.51158A34.88706,34.88706,0,0,0,53.7618,63.48744l-.00027.019v.00252q-.00219.17081-.00225.342a25.2876,25.2876,0,0,0,.63472,5.64239c.42289,1.9971,1.09725,4.10237,1.87806,6.54026a111.90066,111.90066,0,0,1,3.30261,12.01058,1.32567,1.32567,0,1,0,2.59563-.54061A115.76649,115.76649,0,0,0,58.797,75.22494c-.54432-1.69963-1.03547-3.233-1.41554-4.65266a23.38316,23.38316,0,0,1,8.07311,1.5029l.016.00649.01419.00584a18.52358,18.52358,0,0,1,5.64981,3.68943c-3.46964,7.74143-4.00573,21.93775-4.08819,26.36H64.0412c-.03778-.686-.0814-1.36755-.13071-2.03727a1.32572,1.32572,0,0,0-2.64429.19447c.07755,1.05522.141,2.14067.18878,3.22665a1.32565,1.32565,0,0,0,1.32433,1.26759h5.57783a1.32563,1.32563,0,0,0,1.32566-1.32566c0-.17869.04281-16.79036,3.45877-25.61392a40.80018,40.80018,0,0,1,3.63786,5.02039l.00385.006a81.26742,81.26742,0,0,1,5.26365,10.16234l.03738.08431.00358.00782c2.00784,4.52023,3.59067,7.31749,6.19572,9.14889,2.53584,1.78287,5.91415,2.51013,11.66073,2.51013a98.19889,98.19889,0,0,0,20.67427-2.38446,1.32575,1.32575,0,0,0,1.01413-1.28854,12.95213,12.95213,0,0,0-1.86745-6.92867ZM61.47446,68.2769a34.37344,34.37344,0,0,0-4.69282-.37437,21.22238,21.22238,0,0,1-.37105-4.0516c0-.11454.01444-.83543.01922-.95262,4.70316.77962,9.05251,2.90518,13.51254,8.56414a20.62374,20.62374,0,0,0-8.46789-3.18555ZM84.43907,91.89081a83.83492,83.83492,0,0,0-5.37315-10.36663c-3.65576-7.555-7.36575-12.86722-11.34046-16.2385a21.76916,21.76916,0,0,0-11.057-5.03325,34.10787,34.10787,0,0,1,3.336-10.40693C77.68909,58.42661,85.9128,71.15436,91.39174,79.635c1.10493,1.71023,2.05927,3.18741,2.95953,4.41908,1.70108,2.32732,5.26206,2.39413,9.38538,2.47142,3.47826.06522,7.42049.13919,10.12589,1.72229,1.44682.84656,2.21266,2.73987,3.02409,5.511a102.9109,102.9109,0,0,1-19.78688,2.13895c-7.02862,0-10.257-1.0144-12.66068-4.00693Zm15.50553,10.246c-7.4193,0-10.33852-1.06437-12.851-5.00157,2.44451,1.00431,5.60169,1.41381,10.00632,1.41381a104.15907,104.15907,0,0,0,20.79649-2.29126,10.63319,10.63319,0,0,1,1.03919,3.804,97.5714,97.5714,0,0,1-18.991,2.075Z"/></g></g></svg>