<svg xmlns="http://www.w3.org/2000/svg" viewBox="0 0 168.2768 187.56914"><defs><style>.cls-1{fill:none;stroke:#daecf7;stroke-miterlimit:10;stroke-width:2px;opacity:0.42;}.cls-2{fill:#f7b100;}</style></defs><title>Asset 13</title><g id="Layer_2" data-name="Layer 2"><g id="Layer_14" data-name="Layer 14"><path class="cls-1" d="M167.2768,129.78457v-72a20.78458,20.78458,0,0,0-10.39228-18l-62.35383-36a20.7846,20.7846,0,0,0-20.78457,0l-62.35383,36A20.78459,20.78459,0,0,0,1,57.78457v72a20.78459,20.78459,0,0,0,10.39229,18l62.35383,36a20.78455,20.78455,0,0,0,20.78457,0l62.35383-36A20.78458,20.78458,0,0,0,167.2768,129.78457Z"/><path class="cls-2" d="M108.66215,85.75338l-2.402-7.93978h1.1064a1.49059,1.49059,0,0,0,1.42677-1.92214l-2.5918-8.56791a4.44552,4.44552,0,0,0-4.28023-3.1765H88.54391l2.13778-1.51323a1.49014,1.49014,0,0,0,.62932-1.21651V59.47162a4.47172,4.47172,0,1,0-2.98114,0v1.17457l-4.47172,3.16528-4.47171-3.16528V59.47162a4.47172,4.47172,0,1,0-2.98115,0v1.94569a1.49046,1.49046,0,0,0,.62932,1.21661l2.13778,1.51323H65.79521A4.44552,4.44552,0,0,0,61.515,67.32366l-2.5919,8.5678a1.49059,1.49059,0,0,0,1.42677,1.92214h1.1064l-2.4021,7.93978a12.337,12.337,0,0,0,11.80841,15.90936H96.85385a12.33684,12.33684,0,0,0,11.80831-15.90936ZM89.82043,53.76571a1.49058,1.49058,0,1,1-1.49057,1.49058A1.49227,1.49227,0,0,1,89.82043,53.76571ZM77.89586,56.74686a1.49058,1.49058,0,1,1,1.49057-1.49057A1.49226,1.49226,0,0,1,77.89586,56.74686ZM64.36833,68.1867a1.48162,1.48162,0,0,1,1.42678-1.05841H83.85427l.00259.0001.00129-.0001.00129.0001.00258-.0001h18.05917A1.48162,1.48162,0,0,1,103.348,68.1867l2.01028,6.64576h-3.1147l-1.10829-3.664a1.49056,1.49056,0,0,0-1.42667-1.059H68.00771a1.49058,1.49058,0,0,0-1.42668,1.059l-1.10838,3.664h-3.1146Zm39.998,26.71521a9.27165,9.27165,0,0,1-7.51258,3.77969H70.86255A9.35568,9.35568,0,0,1,61.9076,86.61672l2.66325-8.80312h2.0083a1.49056,1.49056,0,0,0,1.42667-1.059l1.10829-3.664H98.60219l1.10828,3.664a1.49058,1.49058,0,0,0,1.42668,1.059h2.0083l2.66325,8.80312a9.27147,9.27147,0,0,1-1.44238,8.28519Z"/></g></g></svg>