<svg xmlns="http://www.w3.org/2000/svg" viewBox="0 0 168.2768 187.56914"><defs><style>.cls-1{fill:none;stroke:#daecf7;stroke-miterlimit:10;stroke-width:2px;opacity:0.42;}.cls-2{fill:#f7b100;}</style></defs><title>Asset 11</title><g id="Layer_2" data-name="Layer 2"><g id="Layer_14" data-name="Layer 14"><path class="cls-1" d="M167.2768,129.78457v-72a20.78458,20.78458,0,0,0-10.39228-18l-62.35383-36a20.7846,20.7846,0,0,0-20.78457,0l-62.35383,36A20.78459,20.78459,0,0,0,1,57.78457v72a20.78459,20.78459,0,0,0,10.39229,18l62.35383,36a20.78455,20.78455,0,0,0,20.78457,0l62.35383-36A20.78458,20.78458,0,0,0,167.2768,129.78457Z"/><path class="cls-2" d="M100.99309,95.79544a1.66868,1.66868,0,0,0,1.32455-1.32468,13.49075,13.49075,0,0,0-.49927-7.08016,13.88811,13.88811,0,0,0-1.472-2.97352,13.56825,13.56825,0,0,0,1.54641-.41955.99816.99816,0,1,0-.63464-1.89276,9.68346,9.68346,0,0,1-6.12242.16234l-.01926-.00664a11.47677,11.47677,0,0,1-2.38419-1.13922,9.0728,9.0728,0,0,0,.0012-6.72185A11.45824,11.45824,0,0,1,95.10967,73.264l.02112-.00717a10.14661,10.14661,0,0,1,7.50157.71634,11.47391,11.47391,0,0,1,4.43983,3.78792,11.73851,11.73851,0,0,1-2.07716,2.26741.99823.99823,0,1,0,1.28137,1.531,13.75707,13.75707,0,0,0,2.5743-2.86153,1.66855,1.66855,0,0,0,.00014-1.87363,13.49169,13.49169,0,0,0-5.35958-4.65346,13.9375,13.9375,0,0,0-3.14358-1.06349,13.9085,13.9085,0,0,0,1.47056-2.97578,13.49132,13.49132,0,0,0,.49913-7.08029,1.66833,1.66833,0,0,0-1.32455-1.32469,13.48789,13.48789,0,0,0-7.08016.49927,13.91546,13.91546,0,0,0-2.97592,1.47042,13.937,13.937,0,0,0-1.06349-3.14358,13.49341,13.49341,0,0,0-4.65346-5.35957,1.66859,1.66859,0,0,0-1.8735,0,13.49163,13.49163,0,0,0-4.65345,5.35957,13.9272,13.9272,0,0,0-1.0635,3.144,13.51143,13.51143,0,0,0-1.39509-.801.99822.99822,0,0,0-.88879,1.78768A11.26421,11.26421,0,0,1,77.36523,63.968a10.42331,10.42331,0,0,0,.52358,3.58837l.00544.01608a13.456,13.456,0,0,0,1.264,2.67925,9.17232,9.17232,0,0,0-2.38206,2.3822,13.49829,13.49829,0,0,0-2.68152-1.26171l-.01594-.00558a10.42445,10.42445,0,0,0-3.59381-.52345,11.65553,11.65553,0,0,1-1.855-3.37886,11.47243,11.47243,0,0,1-.461-5.81792,11.7333,11.7333,0,0,1,3.08207-.13365.99827.99827,0,0,0,.17842-1.98855,13.75072,13.75072,0,0,0-3.8558.20221,1.66863,1.66863,0,0,0-1.32482,1.32468,13.49231,13.49231,0,0,0,.4994,7.08016,13.89149,13.89149,0,0,0,1.471,2.97578A13.93938,13.93938,0,0,0,65.075,72.17051a13.49059,13.49059,0,0,0-5.3593,4.65333,1.66855,1.66855,0,0,0-.00014,1.87363A13.49312,13.49312,0,0,0,65.075,83.35093a13.94269,13.94269,0,0,0,3.14464,1.06654,13.89451,13.89451,0,0,0-1.47148,2.97287,13.49142,13.49142,0,0,0-.49926,7.08029,1.66864,1.66864,0,0,0,1.32468,1.32468,13.84636,13.84636,0,0,0,2.64431.256,13.274,13.274,0,0,0,4.43585-.75541,13.93265,13.93265,0,0,0,2.97591-1.47A13.93481,13.93481,0,0,0,78.693,96.9692a13.49343,13.49343,0,0,0,4.65346,5.35958,1.66859,1.66859,0,0,0,1.8735,0,13.49256,13.49256,0,0,0,4.65346-5.35958,13.93691,13.93691,0,0,0,1.064-3.14557,13.89527,13.89527,0,0,0,2.97538,1.47255,13.27606,13.27606,0,0,0,4.43571.7554A13.85919,13.85919,0,0,0,100.99309,95.79544ZM90.67276,67.5702l.00465-.01382a10.42423,10.42423,0,0,0,.52358-3.59209,11.64371,11.64371,0,0,1,3.37886-1.8569,11.47633,11.47633,0,0,1,5.81779-.461,11.47229,11.47229,0,0,1-.46087,5.81792A11.64484,11.64484,0,0,1,98.08014,70.843a10.42316,10.42316,0,0,0-3.59236.52357l-.01594.00559a13.45494,13.45494,0,0,0-2.68018,1.2637,9.175,9.175,0,0,0-2.38286-2.38366,13.49088,13.49088,0,0,0,1.264-2.68205Zm-10.1775-8.15853a11.47539,11.47539,0,0,1,3.78792-4.44,11.47654,11.47654,0,0,1,3.78791,4.44,10.148,10.148,0,0,1,.716,7.50289l-.00438.01289a11.4987,11.4987,0,0,1-1.13723,2.385,9.06126,9.06126,0,0,0-6.723-.00053,11.44639,11.44639,0,0,1-1.13616-2.37768l-.0073-.02112a10.14755,10.14755,0,0,1,.71634-7.50144ZM65.93373,81.5489A11.47326,11.47326,0,0,1,61.494,77.761a11.47563,11.47563,0,0,1,4.4397-3.78792,10.14624,10.14624,0,0,1,7.49678-.71807l.01927.00664a11.48811,11.48811,0,0,1,2.38339,1.13683,9.07312,9.07312,0,0,0,.00093,6.72265,11.44085,11.44085,0,0,1-2.37741,1.137l-.02113.00717a10.14776,10.14776,0,0,1-7.50183-.71634Zm11.96066,6.40088-.00545.01568a10.42623,10.42623,0,0,0-.52357,3.59236,11.65051,11.65051,0,0,1-3.37873,1.85663,11.47194,11.47194,0,0,1-5.81792.46086,11.472,11.472,0,0,1,.461-5.81778,11.64072,11.64072,0,0,1,1.85822-3.37647c.08716.002.17418.004.26093.004a10.46971,10.46971,0,0,0,3.32984-.52982l.01594-.00557A13.44516,13.44516,0,0,0,76.775,82.88714a9.17643,9.17643,0,0,0,2.381,2.3806,13.50945,13.50945,0,0,0-1.26158,2.682Zm10.1767,8.16052a11.47535,11.47535,0,0,1-3.78791,4.44,11.47585,11.47585,0,0,1-3.78792-4.43983,10.14806,10.14806,0,0,1-.71648-7.50157l.00492-.01434A11.49557,11.49557,0,0,1,80.922,86.21166a9.08513,9.08513,0,0,0,6.72357-.00054,11.4744,11.4744,0,0,1,1.13471,2.37649l.0073.02112a10.148,10.148,0,0,1-.71648,7.50157ZM84.28318,84.85988A7.09889,7.09889,0,1,1,91.38207,77.761,7.10692,7.10692,0,0,1,84.28318,84.85988Zm10.29667,8.55456a11.6545,11.6545,0,0,1-3.37846-1.85729,10.40446,10.40446,0,0,0-.52185-3.58571l-.00757-.02206a13.46967,13.46967,0,0,0-1.26171-2.68151,9.17493,9.17493,0,0,0,2.38113-2.3806c-.01408.02312,1.573.77985,1.70836.84229.32682.15066.65258.28324.9798.39776a9.899,9.899,0,0,0,3.33555.55639c.08622,0,.17324-.00359.25986-.00558a11.63418,11.63418,0,0,1,1.86154,3.3794,11.47235,11.47235,0,0,1,.46087,5.81791,11.47694,11.47694,0,0,1-5.81752-.461Z"/><path class="cls-2" d="M79.62387,51.59178c.1763,0,.35725-.00837.54178-.02538a5.418,5.418,0,0,0,4.12311-2.93725,5.418,5.418,0,0,0,4.1231,2.93725q.277.02551.54178.02538A3.32128,3.32128,0,0,0,92.375,49.48034a2.79014,2.79014,0,0,0-.6737-2.81171,2.65545,2.65545,0,0,0-2.69334-.71794.99814.99814,0,1,0,.56583,1.91442.67813.67813,0,0,1,.69681.19582.8038.8038,0,0,1,.20592.80164c-.26052.80071-1.50549.75022-1.88147.71555-1.622-.14959-3.37873-2.16339-3.30645-4.81408a1.00013,1.00013,0,0,0-1.99984,0c.07227,2.65069-1.68445,4.66449-3.30646,4.81408-.37584.03481-1.62081.08529-1.88147-.71555a.80382.80382,0,0,1,.20592-.80164.67825.67825,0,0,1,.69682-.19582.99814.99814,0,1,0,.56582-1.91442,2.65574,2.65574,0,0,0-2.69334.71794,2.79009,2.79009,0,0,0-.6737,2.81171,3.32132,3.32132,0,0,0,3.42151,2.11144Z"/><path class="cls-2" d="M88.41186,103.95556a5.418,5.418,0,0,0-4.1231,2.93726,5.418,5.418,0,0,0-4.12311-2.93726c-1.96636-.18081-3.48568.61791-3.96315,2.08594a2.79015,2.79015,0,0,0,.6737,2.81171,2.65527,2.65527,0,0,0,2.69334.71793.99821.99821,0,1,0-.56583-1.91455.67849.67849,0,0,1-.69681-.19582.80385.80385,0,0,1-.20593-.80164c.26053-.80071,1.50577-.75009,1.88147-.71555,1.622.1496,3.37873,2.16339,3.30646,4.81408a.99846.99846,0,0,0,1.92784.39032.96622.96622,0,0,0,.072-.39046c-.07228-2.65069,1.68444-4.66448,3.30645-4.81407.37624-.03467,1.62095-.08529,1.88147.71555a.80381.80381,0,0,1-.20592.80163.6784.6784,0,0,1-.69682.19583.99821.99821,0,1,0-.56582,1.91455,2.6554,2.6554,0,0,0,2.69334-.71794,2.79007,2.79007,0,0,0,.6737-2.81171c-.47761-1.468-1.99652-2.267-3.96328-2.0858Z"/><path class="cls-2" d="M58.57338,63.4815a2.79644,2.79644,0,0,0,1.27818.30928,4.02027,4.02027,0,0,0,2.9993-1.63676,5.41762,5.41762,0,0,0,.83871-4.99157,6.75239,6.75239,0,0,0,1.79936.25415,4.9076,4.9076,0,0,0,3.19274-1.09338c1.51931-1.26277,2.02787-2.90178,1.32747-4.27748A2.7899,2.7899,0,0,0,67.54458,50.534l-.03986-.00027A2.65349,2.65349,0,0,0,65.13236,51.931a.99821.99821,0,0,0,1.75393.95363.68942.68942,0,0,1,.63132-.35432.80373.80373,0,0,1,.71236.42141c.38208.75035-.53447,1.59517-.82449,1.8363-1.25254,1.0413-3.91891.85929-5.74206-1.066a.99781.99781,0,0,0-1.21388-.18281l-.00346.002a.99417.99417,0,0,0-.19662,1.5949c1.92531,1.82315,2.10719,4.48939,1.066,5.74206-.241.28989-1.08528,1.20684-1.8363.82449a.80387.80387,0,0,1-.42141-.71236.67893.67893,0,0,1,.35432-.63119A.99823.99823,0,0,0,58.4586,58.605a2.65541,2.65541,0,0,0-1.397,2.41222,2.79061,2.79061,0,0,0,1.51174,2.46429Z"/><path class="cls-2" d="M110.00414,92.04047c-1.37583-.7004-3.01485-.19171-4.27748,1.32747a5.41816,5.41816,0,0,0-.83831,4.993,5.41634,5.41634,0,0,0-4.99263.83791c-1.51932,1.26277-2.02788,2.90179-1.32748,4.27748a2.7911,2.7911,0,0,0,4.87679.11492.99821.99821,0,1,0-1.75393-.95362.67663.67663,0,0,1-.61989.35432h-.01143a.80373.80373,0,0,1-.71236-.42141c-.38209-.75036.53447-1.59517.82449-1.8363a3.46,3.46,0,0,1,2.78992-.55786,5.18566,5.18566,0,0,1,1.66.60621,5.53467,5.53467,0,0,1,.81612.569c.37279.31287.66228.7578,1.20365.7578a.9982.9982,0,0,0,.68633-1.72311c-1.92531-1.82315-2.10719-4.48952-1.066-5.74206.24113-.28989,1.08555-1.20657,1.8363-.82449a.80386.80386,0,0,1,.42141.71236.679.679,0,0,1-.35432.63119.99824.99824,0,0,0,.95349,1.75407,2.65543,2.65543,0,0,0,1.397-2.41223,2.79007,2.79007,0,0,0-1.51161-2.46469Z"/><path class="cls-2" d="M58.09418,81.884a5.41886,5.41886,0,0,0-2.9358-4.12444,5.4174,5.4174,0,0,0,2.9358-4.12164c.18134-1.96717-.6179-3.48581-2.08594-3.96329a2.79056,2.79056,0,0,0-2.81171.67384,2.65519,2.65519,0,0,0-.7178,2.69333.99821.99821,0,1,0,1.91455-.56582.67918.67918,0,0,1,.19582-.69682.80351.80351,0,0,1,.80177-.20579c.80058.2604.75,1.5059.71529,1.88148-.14946,1.62187-2.16458,3.37846-4.814,3.30632a1.00539,1.00539,0,0,0-1.008,1.18292.99358.99358,0,0,0,1.008.81692c2.65375-.07134,4.66449,1.68445,4.814,3.30632.03467.37558.08542,1.62108-.71529,1.88147a.80422.80422,0,0,1-.80177-.20579.67928.67928,0,0,1-.19582-.69682.99822.99822,0,1,0-1.91455-.566,2.65546,2.65546,0,0,0,.7178,2.69333,2.81909,2.81909,0,0,0,1.965.808,2.736,2.736,0,0,0,.84654-.13418c1.46817-.47748,2.26741-1.99613,2.08607-3.96342Z"/><path class="cls-2" d="M117.9416,77.00837a.95909.95909,0,0,0-.65616-.24724c-2.64857.07041-4.66449-1.68445-4.81395-3.30632-.03467-.37558-.08543-1.62108.71528-1.88147a.804.804,0,0,1,.80177.20579.679.679,0,0,1,.19583.69681.99814.99814,0,1,0,1.91442.56582,2.65549,2.65549,0,0,0-.71781-2.69333,2.79029,2.79029,0,0,0-2.81171-.67384c-1.468.47748-2.26728,1.99613-2.08593,3.96329a5.41764,5.41764,0,0,0,2.93686,4.12244,5.418,5.418,0,0,0-2.93686,4.12364c-.18134,1.96716.6179,3.48581,2.08593,3.96328a2.73621,2.73621,0,0,0,.84655.13431,2.81942,2.81942,0,0,0,1.965-.808,2.65521,2.65521,0,0,0,.71781-2.69334.99816.99816,0,1,0-1.91442.566.67917.67917,0,0,1-.19582.69681.80387.80387,0,0,1-.80177.20579c-.80058-.26039-.75-1.50589-.71529-1.88147.14933-1.622,2.16472-3.37793,4.81395-3.30632a1.04068,1.04068,0,0,0,.95216-.60767.80065.80065,0,0,0,.06616-.29733,1.12533,1.12533,0,0,0-.362-.8476Z"/><path class="cls-2" d="M68.6818,99.19875a5.41647,5.41647,0,0,0-4.99277-.83751,5.41794,5.41794,0,0,0-.83817-4.99329c-1.26264-1.51918-2.90112-2.02788-4.27748-1.32748a2.79,2.79,0,0,0-1.51161,2.46443,2.65529,2.65529,0,0,0,1.397,2.41223.99824.99824,0,0,0,.95349-1.75407.67907.67907,0,0,1-.35432-.63119.8036.8036,0,0,1,.42141-.71236c.75022-.38222,1.5953.53447,1.8363.82449,1.04117,1.25267.85929,3.91891-1.066,5.74206a.99813.99813,0,1,0,1.37251,1.44957c.097-.09181.19078-.18826.28311-.28657l.00664.00585c1.80934-1.69282,4.29675-1.81584,5.49376-.821.29.24113,1.20657,1.086.82449,1.83644a.80374.80374,0,0,1-.71236.42127.6881.6881,0,0,1-.63132-.35432.99821.99821,0,0,0-1.75393.95363,2.65349,2.65349,0,0,0,2.37236,1.39722l.03986-.00027a2.79031,2.79031,0,0,0,2.46456-1.51174c.7004-1.37557.19184-3.01445-1.32747-4.27735Z"/><path class="cls-2" d="M99.89572,56.32322a4.90666,4.90666,0,0,0,3.19273,1.09325,6.74888,6.74888,0,0,0,1.7995-.25415,5.41762,5.41762,0,0,0,.83871,4.99157,4.01964,4.01964,0,0,0,2.99929,1.63676,2.78792,2.78792,0,0,0,2.78979-2.77385,2.65526,2.65526,0,0,0-1.39695-2.41222.99823.99823,0,1,0-.95349,1.75406.67909.67909,0,0,1,.35432.63119.8036.8036,0,0,1-.42142.71236c-.75009.38249-1.59517-.53447-1.83629-.82449-1.04118-1.25267-.8593-3.91891,1.066-5.742.97381-.922-.53739-2.34-1.41409-1.414-1.82289,1.92544-4.48925,2.10732-5.74206,1.066-.29-.24113-1.20658-1.08594-.82449-1.83643a.80371.80371,0,0,1,.71236-.42128h.01142a.67714.67714,0,0,1,.6199.35432.99821.99821,0,1,0,1.75393-.95362,2.66242,2.66242,0,0,0-2.41222-1.39695,2.7903,2.7903,0,0,0-2.46457,1.51174c-.70027,1.37583-.19171,3.01484,1.32761,4.27774Z"/></g></g></svg>