<svg xmlns="http://www.w3.org/2000/svg" viewBox="0 0 56 62.8327"><defs><style>.cls-1{fill:#448bf2;}.cls-2{fill:#ffed00;}</style></defs><title>Asset 19</title><g id="Layer_2" data-name="Layer 2"><g id="Layer_14" data-name="Layer 14"><path class="cls-1" d="M0,18.66635v25.5a5.91634,5.91634,0,0,0,2.95818,5.12371l22.08364,12.75a5.91634,5.91634,0,0,0,5.91636,0l22.08364-12.75A5.91634,5.91634,0,0,0,56,44.16635v-25.5a5.91635,5.91635,0,0,0-2.95818-5.12371L30.95818.79264a5.91639,5.91639,0,0,0-5.91636,0l-22.08364,12.75A5.91635,5.91635,0,0,0,0,18.66635Z"/><path class="cls-2" d="M25.54,42.15435a1.11654,1.11654,0,1,0,1.587-1.571l-8.047-8.047H39.634a1.10562,1.10562,0,0,0,1.111-1.112,1.11779,1.11779,0,0,0-1.111-1.127H19.08l8.047-8.032a1.1393,1.1393,0,0,0,0-1.587,1.11187,1.11187,0,0,0-1.587,0l-9.952,9.952a1.09294,1.09294,0,0,0,0,1.571Z"/></g></g></svg>