<svg xmlns="http://www.w3.org/2000/svg" viewBox="0 0 186.00004 207.47383"><defs><style>.cls-1,.cls-2{fill:#daecf7;}.cls-2{font-size:19.39042px;font-family:Lato-MediumItalic, Lato;font-style:italic;}.cls-3{letter-spacing:0.01702em;}.cls-4{letter-spacing:0.02498em;}.cls-5{letter-spacing:0.01602em;}.cls-6{letter-spacing:0.02503em;}.cls-7{fill:none;stroke:#daecf7;stroke-miterlimit:10;stroke-width:2px;opacity:0.42;}</style></defs><title>Asset 28</title><g id="Layer_2" data-name="Layer 2"><g id="Layer_14" data-name="Layer 14"><polygon class="cls-1" points="120.567 85.84 92.756 116.439 92.756 87.582 125.439 47.737 70.691 47.737 74.667 52.609 115.142 52.609 90.32 82.87 90.256 82.947 90.192 82.87 61.374 47.737 61.374 94.71 80.586 116.439 80.586 108.549 66.246 92.773 66.246 61.358 87.756 87.582 87.756 130.205 125.439 87.582 125.439 59.044 120.567 64.983 120.567 85.84"/><text class="cls-2" transform="translate(38.50881 151.3375)"><tspan class="cls-3">C</tspan><tspan class="cls-4" x="12.41992" y="0">as</tspan><tspan class="cls-5" x="31.13086" y="0">aC</tspan><tspan class="cls-6" x="53.79785" y="0">ultu</tspan><tspan x="87.75" y="0">r</tspan><tspan class="cls-4" x="94.43945" y="0">al</tspan></text><path class="cls-7" d="M185,143.80756V63.66627a22.59562,22.59562,0,0,0-11.29781-19.56838L104.29783,4.02724a22.59561,22.59561,0,0,0-22.59562,0L12.29781,44.09789A22.59562,22.59562,0,0,0,1,63.66627v80.14129A22.59563,22.59563,0,0,0,12.29781,163.376l69.4044,40.07064a22.59561,22.59561,0,0,0,22.59562,0l69.4044-40.07064A22.59563,22.59563,0,0,0,185,143.80756Z"/></g></g></svg>