<svg xmlns="http://www.w3.org/2000/svg" viewBox="0 0 186.00004 207.47383"><defs><style>.cls-1,.cls-2{fill:#daecf7;}.cls-2{font-size:16.6988px;font-family:Lato-MediumItalic, Lato;font-style:italic;letter-spacing:0.0155em;}.cls-3{letter-spacing:0.02503em;}.cls-4{letter-spacing:-0.00152em;}.cls-5{letter-spacing:0.01em;}.cls-6{letter-spacing:0.02497em;}.cls-7{fill:none;stroke:#daecf7;stroke-miterlimit:10;stroke-width:2px;opacity:0.42;}</style></defs><title>Asset 27</title><g id="Layer_2" data-name="Layer 2"><g id="Layer_14" data-name="Layer 14"><polygon class="cls-1" points="77.271 97.072 62.152 76.006 77.272 54.94 108.576 54.94 122.608 74.489 129.011 74.489 111.246 49.737 74.602 49.737 55.748 76.006 74.602 102.275 109.911 102.275 104.374 97.072 77.271 97.072"/><polygon class="cls-1" points="111.246 70.35 75.937 70.35 81.474 75.553 108.576 75.553 123.696 96.619 108.576 117.685 77.271 117.685 63.241 98.136 56.836 98.136 74.602 122.888 111.246 122.888 130.1 96.619 111.246 70.35"/><text class="cls-2" transform="translate(55.92775 154.79844)">G<tspan class="cls-3" x="11.60547" y="0">uana</tspan><tspan class="cls-4" x="48.20898" y="0">k</tspan><tspan class="cls-5" x="56.20703" y="0">o</tspan><tspan class="cls-6" x="65.05762" y="0">S</tspan></text><path class="cls-7" d="M185,143.80756V63.66627a22.59562,22.59562,0,0,0-11.29781-19.56838L104.29783,4.02724a22.59561,22.59561,0,0,0-22.59562,0L12.29781,44.09789A22.59562,22.59562,0,0,0,1,63.66627v80.14129A22.59563,22.59563,0,0,0,12.29781,163.376l69.4044,40.07064a22.59561,22.59561,0,0,0,22.59562,0l69.4044-40.07064A22.59563,22.59563,0,0,0,185,143.80756Z"/></g></g></svg>