<svg xmlns="http://www.w3.org/2000/svg" viewBox="0 0 124.69092 65.03765"><defs><style>.cls-1{fill:#fff;}</style></defs><title>Asset 34</title><g id="Layer_2" data-name="Layer 2"><g id="Layer_14" data-name="Layer 14"><path class="cls-1" d="M21.18621,8.17681q.39366-.312.8039-.59243l-2.66723-2.9177a3.1428,3.1428,0,0,1-1.37174,1.50053l2.4495,2.67934q.37612-.34449.77037-.6577Z"/><path class="cls-1" d="M18.75274,4.043l.57014.62368a3.47939,3.47939,0,0,0,.29927-1.41958A3.12087,3.12087,0,0,0,16.65379,0a3.1209,3.1209,0,0,0-2.9686,3.2471,3.121,3.121,0,0,0,2.9686,3.24737,2.74313,2.74313,0,0,0,1.29735-.32726l-.57027-.62379Z"/><path class="cls-1" d="M19.32288,4.66668,18.75274,4.043,17.38087,5.54342l.57027.62379A3.1428,3.1428,0,0,0,19.32288,4.66668Z"/><path class="cls-1" d="M19.32288,4.66668,18.75274,4.043,17.38087,5.54342l.57027.62379A3.1428,3.1428,0,0,0,19.32288,4.66668Z"/><path class="cls-1" d="M40.96365,6.16708a3.14251,3.14251,0,0,1-1.3715-1.50055L36.92453,7.58465a14.27375,14.27375,0,0,1,1.58938,1.26222Z"/><path class="cls-1" d="M40.96365,6.16708a3.14251,3.14251,0,0,1-1.3715-1.50055L36.92453,7.58465a14.27375,14.27375,0,0,1,1.58938,1.26222Z"/><path class="cls-1" d="M41.53377,5.54342l-.57012.62366a2.74357,2.74357,0,0,0,1.2977.32739A3.12077,3.12077,0,0,0,45.2297,3.2471a2.98032,2.98032,0,1,0-5.93671,0,3.47967,3.47967,0,0,0,.29916,1.41943l.57-.62353Z"/><path class="cls-1" d="M41.53377,5.54342l-.57012.62366a2.74357,2.74357,0,0,0,1.2977.32739A3.12077,3.12077,0,0,0,45.2297,3.2471a2.98032,2.98032,0,1,0-5.93671,0,3.47967,3.47967,0,0,0,.29916,1.41943l.57-.62353Z"/><path class="cls-1" d="M40.96365,6.16708l.57012-.62366L40.16215,4.043l-.57.62353A3.14251,3.14251,0,0,0,40.96365,6.16708Z"/><path class="cls-1" d="M40.96365,6.16708l.57012-.62366L40.16215,4.043l-.57.62353A3.14251,3.14251,0,0,0,40.96365,6.16708Z"/><polygon class="cls-1" points="29.457 13.909 29.457 13.909 24.565 19.261 29.457 19.261 29.457 13.909"/><path class="cls-1" d="M16.0994,15.63809c.02-.06305.03994-.12611.06067-.18885C16.13932,15.512,16.1194,15.575,16.0994,15.63809Z"/><path class="cls-1" d="M16,15.96269q.02928-.09952.05976-.19856Q16.02926,15.86316,16,15.96269Z"/><path class="cls-1" d="M17.93536,11.75582q.127-.19466.26022-.38518Q18.06267,11.56138,17.93536,11.75582Z"/><path class="cls-1" d="M18.24086,11.30561q.141-.20032.288-.3965Q18.38143,11.10495,18.24086,11.30561Z"/><path class="cls-1" d="M15.57643,17.77356q.02127-.12127.04451-.242Q15.59792,17.65237,15.57643,17.77356Z"/><path class="cls-1" d="M15.70205,17.133q.084-.38852.186-.7708Q15.786,16.74436,15.70205,17.133Z"/><path class="cls-1" d="M15.90763,16.2883c.01929-.07094.03938-.14158.05959-.21216C15.947,16.14672,15.92693,16.21736,15.90763,16.2883Z"/><path class="cls-1" d="M15.63742,17.44622q.0232-.11835.04794-.23618Q15.66049,17.32784,15.63742,17.44622Z"/><path class="cls-1" d="M24.51424,6.22529q.49039-.19982.99443-.35926Q25.0049,6.02539,24.51424,6.22529Z"/><path class="cls-1" d="M17.38939,12.65733q.25388-.4527.53684-.88771Q17.643,12.20426,17.38939,12.65733Z"/><path class="cls-1" d="M15.57408,17.78744q-.12707.72786-.19084,1.47311h1.53749Z"/><path class="cls-1" d="M21.82186,19.26055l.79943-.8745-5.23382-5.72531a15.93415,15.93415,0,0,0-1.222,2.77273L19.664,19.26055Z"/><path class="cls-1" d="M29.45719,8.64227V5.25686a13.08,13.08,0,0,0-3.26181.41239c.14806-.03809.29666-.07424.44614-.10705Z"/><path class="cls-1" d="M25.889,5.75191c.0602-.01707.12047-.03395.18092-.05015C26.00947,5.718,25.94922,5.73486,25.889,5.75191Z"/><path class="cls-1" d="M25.87129,14.83086l-4.69-5.13043h0l-.78064-.85389q-.48541.44457-.9395.93947-.49369.54-.932,1.12277l5.46376,5.97683Z"/><path class="cls-1" d="M21.99012,7.58438l5.2528,5.74606,1.87837-2.05477-4.614-5.04755a13.51359,13.51359,0,0,0-2.51718,1.35626Z"/><path class="cls-1" d="M25.58387,5.84221q.09688-.03006.19429-.0584Q25.68081,5.81233,25.58387,5.84221Z"/><path class="cls-1" d="M21.18128,9.70043l-.78057-.85387q.37616-.34458.7703-.65771-.394.31317-.77037.6577l.78064.85389Z"/><path class="cls-1" d="M21.18128,9.70043l-.78057-.85387q.37616-.34458.7703-.65771-.394.31317-.77037.6577l.78064.85389Z"/><path class="cls-1" d="M21.99012,7.58438h0q-.41018.28017-.8039.59243Q21.57981,7.86477,21.99012,7.58438Z"/><path class="cls-1" d="M21.99012,7.58438h0q-.41018.28017-.8039.59243Q21.57981,7.86477,21.99012,7.58438Z"/><path class="cls-1" d="M42.91328,15.95929l.00072.00238q-.03591-.12193-.07378-.24309l.001.00337Q42.87808,15.84032,42.91328,15.95929Z"/><path class="cls-1" d="M43.53113,19.26055h0A16.68318,16.68318,0,0,0,42.91641,15.97l0,0A16.68333,16.68333,0,0,1,43.53113,19.26055Z"/><path class="cls-1" d="M42.82282,15.66333l.0014.00433q-.12076-.38326-.25974-.75884l.0037.01023Q42.70435,15.28738,42.82282,15.66333Z"/><path class="cls-1" d="M42.55386,14.87988l.00087.00226q-.04095-.10995-.08368-.21907l.00149.00391Q42.51382,14.77315,42.55386,14.87988Z"/><path class="cls-1" d="M39.77229,10.148c-.02431-.02834-.048-.05716-.0725-.08532.02451.02815.04816.057.07246.08528Z"/><path class="cls-1" d="M42.123,13.837v0l.00648.01457q.1.22029.19317.444l.00374.00883a15.6046,15.6046,0,0,0-2.487-4.07738l0,.00006A15.56837,15.56837,0,0,1,42.123,13.837Z"/><path class="cls-1" d="M42.43775,14.5782l.00146.00364q-.04158-.10515-.0844-.2097l.001.00243Q42.39755,14.476,42.43775,14.5782Z"/><path class="cls-1" d="M34.19891,6.14447c.03057.01187.061.02416.09149.03628C34.25991,6.16864,34.22948,6.15634,34.19891,6.14447Z"/><path class="cls-1" d="M34.19891,6.14447c.03057.01187.061.02416.09149.03628C34.25991,6.16864,34.22948,6.15634,34.19891,6.14447Z"/><path class="cls-1" d="M30.49291,9.77525l3.41826-3.739a13.0618,13.0618,0,0,0-4.454-.77941V8.642Z"/><path class="cls-1" d="M30.49291,9.77525l3.41826-3.739a13.0618,13.0618,0,0,0-4.454-.77941V8.642Z"/><path class="cls-1" d="M39.69979,10.06264q-.12164-.1397-.24679-.27662c.10869.1189.21468.23986.31925.3619C39.748,10.1196,39.7243,10.09079,39.69979,10.06264Z"/><path class="cls-1" d="M39.69979,10.06264q-.12164-.1397-.24679-.27662c.10869.1189.21468.23986.31925.3619C39.748,10.1196,39.7243,10.09079,39.69979,10.06264Z"/><path class="cls-1" d="M29.45719,13.90935v5.3512h.01774L38.77261,9.08977q.16092.15464.31814.31505-.28254-.28838-.57684-.558l-.7803.85357L36.362,8.2l.56254-.61536a13.693,13.693,0,0,0-1.2394-.75392c.05418.02914.10843.05815.16228.08806Z"/><path class="cls-1" d="M29.45719,13.90935v5.3512h.01774L38.77261,9.08977q.16092.15464.31814.31505c-.18836-.19225-.86442-.80826-1.06059-.988l-.50524-.39824a19.66487,19.66487,0,0,0-1.83979-1.1879c.05418.02914.10843.05815.16228.08806Z"/><path class="cls-1" d="M39.13467,9.44947q.16116.16524.31833.33655C39.34838,9.67157,39.24194,9.55987,39.13467,9.44947Z"/><path class="cls-1" d="M39.13467,9.44947q.16116.16524.31833.33655C39.34838,9.67157,39.24194,9.55987,39.13467,9.44947Z"/><path class="cls-1" d="M35.41849,6.69092q.07876.04014.1571.08129Q35.49726,6.731,35.41849,6.69092Z"/><path class="cls-1" d="M35.41849,6.69092q.07876.04014.1571.08129Q35.49726,6.731,35.41849,6.69092Z"/><path class="cls-1" d="M42.123,13.837a15.56843,15.56843,0,0,0-2.28349-3.60992c.10219.12092.2031.24282.3014.36667l-7.92278,8.66676H37.165Z"/><path class="cls-1" d="M42.123,13.837a15.56843,15.56843,0,0,0-2.28349-3.60992c.10219.12092.2031.24282.3014.36667l-7.92278,8.66676H37.165Z"/><path class="cls-1" d="M43.53113,19.26055A16.68333,16.68333,0,0,0,42.91638,15.97l-3.008,3.29051Z"/><path class="cls-1" d="M43.53113,19.26055A16.68333,16.68333,0,0,0,42.91638,15.97l-3.008,3.29051Z"/><path class="cls-1" d="M35.1471,6.55614c.04866.02343.097.04761.14542.07165C35.24409,6.60376,35.19576,6.57955,35.1471,6.55614Z"/><path class="cls-1" d="M35.1471,6.55614c.04866.02343.097.04761.14542.07165C35.24409,6.60376,35.19576,6.57955,35.1471,6.55614Z"/><path class="cls-1" d="M34.49006,6.26189c.03638.01515.07275.03032.109.0458Q34.54466,6.28449,34.49006,6.26189Z"/><path class="cls-1" d="M34.49006,6.26189c.03638.01515.07275.03032.109.0458Q34.54466,6.28449,34.49006,6.26189Z"/><path class="cls-1" d="M34.78822,6.39042c.03442.01533.069.03023.10331.04587C34.85721,6.42067,34.82265,6.40575,34.78822,6.39042Z"/><path class="cls-1" d="M34.78822,6.39042c.03442.01533.069.03023.10331.04587C34.85721,6.42067,34.82265,6.40575,34.78822,6.39042Z"/><path class="cls-1" d="M42.47254,14.667c.02751.07079.0548.14167.08132.2129Q42.51405,14.773,42.47254,14.667Z"/><path class="cls-1" d="M42.47254,14.667c.02751.07079.0548.14167.08132.2129Q42.51405,14.773,42.47254,14.667Z"/><path class="cls-1" d="M42.12953,13.85159q.10007.2203.19317.444Q42.22928,14.072,42.12953,13.85159Z"/><path class="cls-1" d="M42.12953,13.85159q.10007.2203.19317.444Q42.22928,14.072,42.12953,13.85159Z"/><path class="cls-1" d="M42.84124,15.722q.03682.11835.072.23734Q42.8782,15.84025,42.84124,15.722Z"/><path class="cls-1" d="M42.84124,15.722q.03682.11835.072.23734Q42.8782,15.84025,42.84124,15.722Z"/><path class="cls-1" d="M42.56818,14.91905q.13609.36833.25464.74428Q42.70429,15.28749,42.56818,14.91905Z"/><path class="cls-1" d="M42.56818,14.91905q.13609.36833.25464.74428Q42.70429,15.28749,42.56818,14.91905Z"/><path class="cls-1" d="M42.35579,14.37457q.04175.10146.082.20363Q42.39734,14.4761,42.35579,14.37457Z"/><path class="cls-1" d="M42.35579,14.37457q.04175.10146.082.20363Q42.39734,14.4761,42.35579,14.37457Z"/><polygon class="cls-1" points="42.123 13.837 42.123 13.837 42.123 13.837 42.123 13.837"/><polygon class="cls-1" points="42.123 13.837 42.123 13.837 42.123 13.837 42.123 13.837"/><polygon class="cls-1" points="37.165 19.261 42.123 13.837 42.123 13.837 37.165 19.261 37.165 19.261"/><polygon class="cls-1" points="37.165 19.261 42.123 13.837 42.123 13.837 37.165 19.261 37.165 19.261"/><polygon class="cls-1" points="37.165 19.261 42.123 13.837 42.123 13.837 37.165 19.261 37.165 19.261"/><path class="cls-1" d="M25.50867,5.866l.0752-.02382Z"/><path class="cls-1" d="M25.77816,5.78381q.05535-.0162.11085-.0319Q25.83351,5.76765,25.77816,5.78381Z"/><path class="cls-1" d="M15.57391,17.78726l.00017.00018.00235-.01388Z"/><path class="cls-1" d="M18.19558,11.37064l.04528-.065Z"/><path class="cls-1" d="M15.62094,17.5316l.01648-.08538Z"/><path class="cls-1" d="M26.06993,5.70176c.04172-.01117.08361-.02176.12545-.03251C26.15354,5.68,26.11165,5.69057,26.06993,5.70176Z"/><polygon class="cls-1" points="24.507 6.228 24.507 6.228 24.514 6.225 24.507 6.228"/><polygon class="cls-1" points="18.529 10.909 18.529 10.909 18.529 10.909 18.529 10.909"/><polygon class="cls-1" points="17.387 12.661 17.387 12.661 17.389 12.657 17.387 12.661"/><path class="cls-1" d="M15.68536,17.21l.01669-.07708Z"/><path class="cls-1" d="M15.96722,16.07614q.01628-.05677.03282-.11345Q15.98338,16.01933,15.96722,16.07614Z"/><path class="cls-1" d="M16.0598,15.76413c.013-.04211.02629-.08407.0396-.126C16.0861,15.68006,16.07277,15.722,16.0598,15.76413Z"/><path class="cls-1" d="M16.16521,15.43324l-.00514.016.00535-.01577Z"/><path class="cls-1" d="M15.88808,16.36216l.01955-.07386Z"/><path class="cls-1" d="M17.92623,11.76962l.00913-.0138Z"/><path class="cls-1" d="M21.171,8.18885l.0152-.012Z"/><path class="cls-1" d="M21.171,8.18885l.0152-.012Z"/><polygon class="cls-1" points="35.847 6.919 29.457 13.909 29.457 13.909 35.847 6.919"/><polygon class="cls-1" points="35.847 6.919 29.457 13.909 29.457 13.909 35.847 6.919"/><polygon class="cls-1" points="35.847 6.919 29.457 13.909 29.457 13.909 35.847 6.919"/><polygon class="cls-1" points="29.457 8.642 29.457 8.642 30.493 9.775 29.457 8.642"/><polygon class="cls-1" points="29.457 8.642 29.457 8.642 30.493 9.775 29.457 8.642"/><polygon class="cls-1" points="29.457 8.642 29.457 8.642 30.493 9.775 29.457 8.642"/><path class="cls-1" d="M34.2904,6.18075q.10012.03975.19966.08114Q34.39054,6.22046,34.2904,6.18075Z"/><path class="cls-1" d="M34.2904,6.18075q.10012.03975.19966.08114Q34.39054,6.22046,34.2904,6.18075Z"/><path class="cls-1" d="M34.89153,6.43629q.12835.05844.25557.11985Q35.01984,6.49487,34.89153,6.43629Z"/><path class="cls-1" d="M34.89153,6.43629q.12835.05844.25557.11985Q35.01984,6.49487,34.89153,6.43629Z"/><path class="cls-1" d="M35.29252,6.62779q.06309.03129.126.06313C35.37662,6.66958,35.33458,6.64867,35.29252,6.62779Z"/><path class="cls-1" d="M35.29252,6.62779q.06309.03129.126.06313C35.37662,6.66958,35.33458,6.64867,35.29252,6.62779Z"/><path class="cls-1" d="M35.57559,6.77221c.03662.01926.07307.03891.10954.05852C35.64866,6.81112,35.6122,6.79148,35.57559,6.77221Z"/><path class="cls-1" d="M35.57559,6.77221c.03662.01926.07307.03891.10954.05852C35.64866,6.81112,35.6122,6.79148,35.57559,6.77221Z"/><path class="cls-1" d="M33.91124,6.0362l-.00007.00007q.1445.05227.28774.1082C34.10337,6.10735,34.00755,6.071,33.91124,6.0362Z"/><path class="cls-1" d="M33.91124,6.0362l-.00007.00007q.1445.05227.28774.1082C34.10337,6.10735,34.00755,6.071,33.91124,6.0362Z"/><path class="cls-1" d="M34.59908,6.30769c.06326.027.12625.05474.18914.08273Q34.69388,6.34839,34.59908,6.30769Z"/><path class="cls-1" d="M34.59908,6.30769c.06326.027.12625.05474.18914.08273Q34.69388,6.34839,34.59908,6.30769Z"/><path class="cls-1" d="M39.09075,9.40482l.04392.04465Z"/><path class="cls-1" d="M39.09075,9.40482l.04392.04465Z"/><path class="cls-1" d="M39.77229,10.148l.06719.07907Z"/><path class="cls-1" d="M39.77229,10.148l.06719.07907Z"/><path class="cls-1" d="M39.83955,10.22712l-.00007-.00009-.06719-.07907,0,0Z"/><path class="cls-1" d="M39.83955,10.22712l-.00007-.00009-.06719-.07907,0,0Z"/><path class="cls-1" d="M39.83955,10.22712l-.00007-.00009-.06719-.07907,0,0Z"/><path class="cls-1" d="M42.55473,14.88214l.00975.02668Z"/><path class="cls-1" d="M42.55473,14.88214l.00975.02668Z"/><polygon class="cls-1" points="42.916 15.97 42.914 15.962 42.916 15.97 42.916 15.97"/><polygon class="cls-1" points="42.916 15.97 42.914 15.962 42.916 15.97 42.916 15.97"/><path class="cls-1" d="M42.82422,15.66766l.016.05092Z"/><path class="cls-1" d="M42.82422,15.66766l.016.05092Z"/><path class="cls-1" d="M42.43921,14.58184l.03184.08123Z"/><path class="cls-1" d="M42.43921,14.58184l.03184.08123Z"/><path class="cls-1" d="M42.32644,14.30441l.02837.06773Z"/><path class="cls-1" d="M42.32644,14.30441l.02837.06773Z"/><path class="cls-1" d="M42.12953,13.85159l-.00648-.01457v0Z"/><path class="cls-1" d="M42.12953,13.85159l-.00648-.01457v0Z"/><path class="cls-1" d="M42.12953,13.85159l-.00648-.01457v0Z"/><path class="cls-1" d="M42.84124,15.722l-.001-.00337-.016-.05092-.0014-.00433Z"/><path class="cls-1" d="M42.84124,15.722l-.001-.00337-.016-.05092-.0014-.00433Z"/><path class="cls-1" d="M42.84124,15.722l-.001-.00337-.016-.05092-.0014-.00433Z"/><polygon class="cls-1" points="42.916 15.97 42.916 15.97 42.914 15.962 42.913 15.959 42.916 15.97"/><polygon class="cls-1" points="42.916 15.97 42.916 15.97 42.914 15.962 42.913 15.959 42.916 15.97"/><polygon class="cls-1" points="42.916 15.97 42.916 15.97 42.914 15.962 42.913 15.959 42.916 15.97"/><path class="cls-1" d="M42.35579,14.37457l-.001-.00243-.02837-.06773-.00374-.00883Z"/><path class="cls-1" d="M42.35579,14.37457l-.001-.00243-.02837-.06773-.00374-.00883Z"/><path class="cls-1" d="M42.35579,14.37457l-.001-.00243-.02837-.06773-.00374-.00883Z"/><path class="cls-1" d="M42.56818,14.91905l-.0037-.01023-.00975-.02668-.00087-.00226Z"/><path class="cls-1" d="M42.56818,14.91905l-.0037-.01023-.00975-.02668-.00087-.00226Z"/><path class="cls-1" d="M42.56818,14.91905l-.0037-.01023-.00975-.02668-.00087-.00226Z"/><path class="cls-1" d="M42.47254,14.667l-.00149-.00391-.03184-.08123-.00146-.00364Z"/><path class="cls-1" d="M42.47254,14.667l-.00149-.00391-.03184-.08123-.00146-.00364Z"/><path class="cls-1" d="M42.47254,14.667l-.00149-.00391-.03184-.08123-.00146-.00364Z"/><path class="cls-1" d="M43.5936,20.72074q0-.736-.06247-1.46019h0Q43.59269,19.98429,43.5936,20.72074Z"/><path class="cls-1" d="M43.5936,20.72074q0-.736-.06247-1.46019h0Q43.59269,19.98429,43.5936,20.72074Z"/><polygon class="cls-1" points="29.475 19.261 29.457 19.261 29.457 19.28 29.475 19.261"/><polygon class="cls-1" points="29.475 19.261 29.457 19.261 29.457 19.28 29.475 19.261"/><polygon class="cls-1" points="29.475 19.261 29.457 19.261 29.457 19.28 29.475 19.261"/><path class="cls-1" d="M45.42645,21.40468H11.079V15.34455a1.93915,1.93915,0,0,0-1.84663-2.02H1.84664A1.93915,1.93915,0,0,0,0,15.34455a1.93916,1.93916,0,0,0,1.84664,2.02H7.38572V46.85725a1.93915,1.93915,0,0,0,1.84664,2.02H39.9339a1.88473,1.88473,0,0,0,1.78875-1.51836l5.49254-23.43252a1.98769,1.98769,0,0,0-1.78874-2.52172ZM38.501,44.8372H11.079V25.44477h31.9676ZM12.92563,52.91738a6.08456,6.08456,0,0,0,0,12.12027,6.08456,6.08456,0,0,0,0-12.12027Zm0,8.08018a2.02819,2.02819,0,0,1,0-4.04009,2.02819,2.02819,0,0,1,0,4.04009Zm19.67509-8.08018a6.08456,6.08456,0,0,0,0,12.12027,6.08456,6.08456,0,0,0,0-12.12027Zm0,8.08018a2.02819,2.02819,0,1,1,1.84664-2.02A1.9414,1.9414,0,0,1,32.60072,60.99756Z"/><path class="cls-1" d="M62.43378,20.39145a1.08952,1.08952,0,0,0-.07114-.39008,41.384,41.384,0,0,1,5.37346-.45012c1.498-.04065,2.63636-.1027,3.3894-.18508,1.32344-.16782,1.60118-.914,1.60118-1.51056a1.15337,1.15337,0,0,0-.75768-1.144,7.09508,7.09508,0,0,0-2.31339-.24753,52.37854,52.37854,0,0,0-10.11833,1.04133,65.58144,65.58144,0,0,0-7.29591,1.879c-1.1584.40893-1.40167,1.12637-1.40167,1.65619a1.31055,1.31055,0,0,0,.25965.80891,1.22052,1.22052,0,0,0,1.0122.58264,3.32744,3.32744,0,0,0,1.14936-.28229,53.33043,53.33043,0,0,1,6.03554-1.44972l-.075.13051c-1.78578,3.13908-2.92878,5.16864-3.396,6.02943-1.17454,2.12263-2.47133,4.76786-3.85443,7.86121C49.76222,39.63673,48.6884,42.667,48.6884,43.9851a2.10927,2.10927,0,0,0,.31931,1.11072,1.46157,1.46157,0,0,0,1.26794.82857c.61148,0,1.03029-.53464,1.23885-1.56366a64.96477,64.96477,0,0,1,3.55688-9.59349A106.00658,106.00658,0,0,1,61.77732,22.015,3.42691,3.42691,0,0,0,62.43378,20.39145Z"/><path class="cls-1" d="M69.26589,24.11023a3.60509,3.60509,0,0,0-1.08628,2.347,1.37364,1.37364,0,0,0,.30977.9076,1.05126,1.05126,0,0,0,.85108.423A2.40793,2.40793,0,0,0,71.11768,26.656a3.57183,3.57183,0,0,0,.90413-2.1463c0-.84555-.43666-1.33057-1.19777-1.33057A2.23064,2.23064,0,0,0,69.26589,24.11023Z"/><path class="cls-1" d="M68.33144,31.813a1.21837,1.21837,0,0,0-.2176-.67959l-.01712-.02367a.98224.98224,0,0,0-.79631-.40426,1.25875,1.25875,0,0,0-.94325.50188,11.35924,11.35924,0,0,0-1.04325,1.49545,29.58787,29.58787,0,0,0-3.04565,6.09095c-1.07234,3.11808-1.21,3.881-1.21,4.19738a1.3014,1.3014,0,0,0,.27652.8065,1.04009,1.04009,0,0,0,.88409.48355c.409,0,.96183-.224,1.27356-1.29112.43935-1.50856.95254-2.99706,1.52783-4.429a38.293,38.293,0,0,1,2.709-5.30517A3.03317,3.03317,0,0,0,68.33144,31.813Z"/><path class="cls-1" d="M81.31693,44.7028c.41271.83753.95059,1.26211,1.59874,1.26211a1.083,1.083,0,0,0,.831-.39918,1.05526,1.05526,0,0,0,.32958-.74886A1.99876,1.99876,0,0,0,83.765,43.882a3.96342,3.96342,0,0,1-.50463-1.92552c0-2.19123,1.16231-4.78671,3.45517-7.71477a2.85977,2.85977,0,0,0,.73617-1.69845c0-.795-.40635-1.26973-1.08677-1.26973-.52664,0-1.48848.30931-3.88573,2.651a2.44505,2.44505,0,0,0,.39168-1.15806,1.34333,1.34333,0,0,0-.366-.9302.97184.97184,0,0,0-.72052-.35986c-.47138,0-.9496.40907-1.50631,1.29006-.47432.76477-1.13005,2.00562-1.94788,3.68682C76.364,40.45789,76.03889,41.7275,76.00854,42.289a1.26131,1.26131,0,0,0-.2609-.18366l-.00294-.00147a3.87029,3.87029,0,0,1-.64839-.377,1.67319,1.67319,0,0,1-.36674-1.12958,9.14284,9.14284,0,0,1,.55353-2.66583,16.03969,16.03969,0,0,1,1.04765-2.571,3.8236,3.8236,0,0,0,.56845-1.5999,1.64221,1.64221,0,0,0-.23129-.79205,3.60484,3.60484,0,0,0,.26845-1.196,1.90244,1.90244,0,0,0-.56111-1.34635,2.09277,2.09277,0,0,0-1.54544-.63346,4.5618,4.5618,0,0,0-2.79162,1.13092,13.38311,13.38311,0,0,0-3.59477,4.7831A12.14338,12.14338,0,0,0,67.10384,40.861a3.79391,3.79391,0,0,0,.40268,1.78391,2.057,2.057,0,0,0,1.87086,1.23054A3.46375,3.46375,0,0,0,71.97927,42.144q.24132-.33.48727-.72145a3.56754,3.56754,0,0,0,.67187,2.06258A2.45328,2.45328,0,0,0,75.145,44.60572a1.25158,1.25158,0,0,0,.88555-.35946,1.22135,1.22135,0,0,0,.37634-.82026.9935.9935,0,0,0,.74124.32762c.55915,0,1.06477-.42967,1.50779-1.28658a19.53735,19.53735,0,0,1,3.17033-4.8731A11.34283,11.34283,0,0,0,80.772,42.09849,5.76556,5.76556,0,0,0,81.31693,44.7028Zm-6.571-11.54909a2.46084,2.46084,0,0,0-.36283.44089,18.3111,18.3111,0,0,0-.97406,1.95988,35.2499,35.2499,0,0,1-1.62954,3.30638l-.0022.00361c-.93983,1.63854-1.51194,1.88312-1.7694,1.88312-.168,0-.21319-.06793-.23544-.10123a.97694.97694,0,0,1-.10587-.536A9.93254,9.93254,0,0,1,71.42256,35.28c1.02369-1.67332,1.95178-2.52181,2.75812-2.52181a.5247.5247,0,0,1,.33838.13333A1.20479,1.20479,0,0,1,74.74595,33.15371Z"/><path class="cls-1" d="M98.98691,35.50514a.777.777,0,0,0-.80854-.864c-.34424,0-.65426.24124-.93.733A21.4279,21.4279,0,0,1,95.263,38.37877,12.90715,12.90715,0,0,1,93.55771,40.195c.33055-.72573.69044-1.44638,1.0765-2.15526.732-1.3612,1.26818-2.299,1.58822-2.77922a1.14381,1.14381,0,0,0,.26088-.648,1.20516,1.20516,0,0,0-.35794-.75582,6.23668,6.23668,0,0,0,.5061-2.22627,2.03417,2.03417,0,0,0-.45427-1.41227,1.94764,1.94764,0,0,0-1.50387-.70955A5.63455,5.63455,0,0,0,91.20006,31.199a16.31275,16.31275,0,0,0-3.84024,5.35973,9.56494,9.56494,0,0,0-1.13567,3.937,3.26088,3.26088,0,0,0,.32248,1.40746A1.70972,1.70972,0,0,0,88.10821,43.003a3.50061,3.50061,0,0,0,2.13833-1.00027q-.20721.48342-.45084,1.04788c-2.78282,1.69056-4.33461,2.67559-4.73583,3.00482-2.587,2.01752-3.89868,4.1808-3.89868,6.42994a3.37134,3.37134,0,0,0,.34327,1.53316,2.11954,2.11954,0,0,0,2.02318,1.21758c1.65644,0,3.33366-1.49345,5.12848-4.56674.64008-1.10444,1.642-3.21169,2.97865-6.26412A20.37644,20.37644,0,0,0,98.23,37.5363,4.82044,4.82044,0,0,0,98.98691,35.50514Zm-7.14334.89275a.81845.81845,0,0,0,.18435.47727c-.04475.07877-.10929.18922-.202.34394a15.02542,15.02542,0,0,1-1.22784,1.77749c-.9567,1.19591-1.3985,1.325-1.544,1.325-.11516,0-.145-.03691-.15525-.04948a.46712.46712,0,0,1-.05648-.28349,5.053,5.053,0,0,1,.45109-1.70581,14.60513,14.60513,0,0,1,2.67279-4.28524c1.19777-1.343,1.78016-1.5436,2.02074-1.5436a.57048.57048,0,0,1,.08019.00816.31537.31537,0,0,1,.02029.14215,2.52972,2.52972,0,0,1-.41246,1.09481,9.28621,9.28621,0,0,1-1.43835,1.94183A1.15808,1.15808,0,0,0,91.84357,36.39789Zm.35818.69819-.002-.00241.00123.00147ZM83.97261,52.45315a.273.273,0,0,1-.26331-.17251.53163.53163,0,0,1-.05966-.26183,1.72529,1.72529,0,0,1,.09217-.481,6.42135,6.42135,0,0,1,1.17039-2.13614,12.175,12.175,0,0,1,3.23219-2.84074c-.52761,1.08907-1.12735,2.22186-1.79066,3.38059l-.00025.0004C85.16941,52.01747,84.40512,52.45315,83.97261,52.45315Z"/><path class="cls-1" d="M115.40729,27.78782A2.40791,2.40791,0,0,0,117.1845,26.656a3.57179,3.57179,0,0,0,.90414-2.1463c0-.84555-.43667-1.33057-1.19777-1.33057a2.22875,2.22875,0,0,0-1.55742.93046,3.60548,3.60548,0,0,0-1.087,2.34769,1.37364,1.37364,0,0,0,.30977.9076A1.05126,1.05126,0,0,0,115.40729,27.78782Z"/><path class="cls-1" d="M114.39827,31.813a1.21837,1.21837,0,0,0-.2176-.67959l-.01712-.02367a.98224.98224,0,0,0-.79631-.40426,1.25873,1.25873,0,0,0-.94325.50188,11.35826,11.35826,0,0,0-1.04325,1.49545,29.58787,29.58787,0,0,0-3.04565,6.09095c-.58018,1.68706-.88543,2.68116-1.04463,3.29161-.0209-.01535-.042-.03165-.06243-.04489l-.00611-.004a3.61971,3.61971,0,0,1-.90805-.66341,3.26778,3.26778,0,0,1-.53935-1.91188,6.63409,6.63409,0,0,1,.82687-2.75074c1.187-2.37136,1.32442-3.12036,1.32442-3.47741a1.36016,1.36016,0,0,0-.33764-.8985.99932.99932,0,0,0-.76747-.39155,1.72277,1.72277,0,0,0-1.31146.87016,7.61708,7.61708,0,0,0-.921,1.90519,19.44392,19.44392,0,0,1-1.46965,3.33565c-1.4271,2.50429-2.10166,2.77468-2.32537,2.77468-.02616,0-.05965-.00388-.06845-.015a.33454.33454,0,0,1-.03179-.17585,7.59075,7.59075,0,0,1,.88678-2.90091,20.65918,20.65918,0,0,1,2.28918-3.61581,2.80435,2.80435,0,0,0,.77431-1.51685,1.12208,1.12208,0,0,0-.29192-.72747c-.54082-.59107-1.23274-.45521-2.15618.39984a10.85259,10.85259,0,0,0-1.94641,2.50281A12.4748,12.4748,0,0,0,98.149,41.003a3.45664,3.45664,0,0,0,.40585,1.709,1.918,1.918,0,0,0,1.71928,1.08224,3.26008,3.26008,0,0,0,2.40067-1.42726c.26332-.31452.55378-.69751.86746-1.144.00318.02126.00611.03878.00905.05362a4.1285,4.1285,0,0,0,.97552,2.32349,2.62152,2.62152,0,0,0,1.94127.92445,1.33321,1.33321,0,0,0,.92908-.35665,1.3618,1.3618,0,0,0,.16344-.18189,1.01138,1.01138,0,0,0,.725.29515c.409,0,.96184-.224,1.27357-1.29112.43935-1.50856.95254-2.99706,1.52783-4.429a38.293,38.293,0,0,1,2.709-5.30517A3.03317,3.03317,0,0,0,114.39827,31.813Z"/><path class="cls-1" d="M123.96282,29.90658l-.00024-.00027a3.07837,3.07837,0,0,0-1.93468-.51939,7.10231,7.10231,0,0,0-4.3637,1.57408,4.89707,4.89707,0,0,0-2.17525,3.91536,6.76981,6.76981,0,0,0,1.2919,3.61929,3.939,3.939,0,0,1,.82223,1.97981,1.42615,1.42615,0,0,1-.24768.87938,1.00775,1.00775,0,0,1-.854.38674,1.41808,1.41808,0,0,1-1.06379-.49626,1.94807,1.94807,0,0,1-.53886-1.39877,4.21047,4.21047,0,0,1,.37994-1.854,1.53157,1.53157,0,0,0,.21369-.68186.757.757,0,0,0-.82712-.80316,1.63173,1.63173,0,0,0-1.29141.86815,5.003,5.003,0,0,0-.81514,2.8969,4.64189,4.64189,0,0,0,.71832,2.58652,3.3937,3.3937,0,0,0,3.00188,1.56406,3.76732,3.76732,0,0,0,2.21755-.69176,3.633,3.633,0,0,0,1.61365-3.13413,6.115,6.115,0,0,0-1.15694-3.14483,4.99811,4.99811,0,0,1-.92-2.41389,2.70922,2.70922,0,0,1,1.34129-2.22627,3.8292,3.8292,0,0,1,2.17133-.88593.67354.67354,0,0,1,.435.11072.43717.43717,0,0,1,.09193.32362.984.984,0,0,1-.376.71463,2.39359,2.39359,0,0,1-1.10267.62209,6.93407,6.93407,0,0,0-1.354.38313,1.24217,1.24217,0,0,0-.63543,1.12035,1.0523,1.0523,0,0,0,1.14227,1.148,4.258,4.258,0,0,0,1.55742-.371,5.77058,5.77058,0,0,0,2.49089-1.82709,4.2956,4.2956,0,0,0,.89582-2.56112A2.00843,2.00843,0,0,0,123.96282,29.90658Z"/></g></g></svg>