<svg xmlns="http://www.w3.org/2000/svg" viewBox="0 0 186.00004 207.47383"><defs><style>.cls-1{fill:#448bf2;}.cls-2{font-size:22.50525px;fill:#4d4d4d;font-family:Lato-BoldItalic, Lato;font-weight:700;font-style:italic;letter-spacing:0.02499em;}.cls-3{letter-spacing:0.01497em;}.cls-4{fill:none;stroke:#f7b100;stroke-miterlimit:10;stroke-width:2px;opacity:0.42;}</style></defs><title>Asset 33</title><g id="Layer_2" data-name="Layer 2"><g id="Layer_14" data-name="Layer 14"><polygon class="cls-1" points="74.895 115.647 110.107 80.102 101.528 71.602 105.002 68.095 117.089 80.069 86.79 110.654 112.719 110.532 143.018 79.947 113.46 50.665 81.722 82.703 41.83 82.89 80.517 43.838 92.602 55.81 89.128 59.318 80.55 50.819 53.725 77.898 79.653 77.776 113.428 43.684 150 79.914 114.787 115.459 74.895 115.647"/><text class="cls-2" transform="translate(42.45607 149.42539)">la abueli<tspan class="cls-3" x="84.95605" y="0">t</tspan><tspan x="93.53027" y="0">a</tspan></text><path class="cls-4" d="M185,143.80756V63.66627a22.59562,22.59562,0,0,0-11.29781-19.56838L104.29783,4.02724a22.59561,22.59561,0,0,0-22.59562,0L12.29781,44.09789A22.59562,22.59562,0,0,0,1,63.66627v80.14129A22.59563,22.59563,0,0,0,12.29781,163.376l69.4044,40.07064a22.59561,22.59561,0,0,0,22.59562,0l69.4044-40.07064A22.59563,22.59563,0,0,0,185,143.80756Z"/></g></g></svg>