<svg xmlns="http://www.w3.org/2000/svg" viewBox="0 0 186.00004 207.47383"><defs><style>.cls-1,.cls-2{fill:#daecf7;}.cls-2{font-size:16.71158px;font-family:Lato-MediumItalic, Lato;font-style:italic;letter-spacing:0.009em;}.cls-3{letter-spacing:0.02501em;}.cls-4{font-size:25.50714px;font-family:Lato-BoldItalic, Lato;font-weight:700;letter-spacing:0.02301em;}.cls-5{letter-spacing:0.025em;}.cls-6{letter-spacing:0.00601em;}.cls-7{letter-spacing:0.00651em;}.cls-8{fill:none;stroke:#daecf7;stroke-miterlimit:10;stroke-width:2px;opacity:0.42;}</style></defs><title>Asset 26</title><g id="Layer_2" data-name="Layer 2"><g id="Layer_14" data-name="Layer 14"><polygon class="cls-1" points="100.808 48.874 100.808 41.449 94.378 37.737 87.948 41.449 87.948 48.874 94.378 52.587 100.808 48.874"/><polygon class="cls-1" points="116.189 57.754 116.189 50.329 109.758 46.617 103.328 50.329 103.328 57.754 109.758 61.467 116.189 57.754"/><polygon class="cls-1" points="131.284 66.469 131.284 59.044 124.853 55.332 118.423 59.044 118.423 66.469 124.853 70.182 131.284 66.469"/><polygon class="cls-1" points="131.284 84.065 131.284 76.64 124.853 72.927 118.423 76.64 118.423 84.065 124.853 87.777 131.284 84.065"/><polygon class="cls-1" points="114.66 74.8 114.66 69.139 109.758 66.309 104.856 69.139 104.856 74.8 109.758 77.63 114.66 74.8"/><polygon class="cls-1" points="114.66 92.395 114.66 86.734 109.758 83.904 104.856 86.734 104.856 92.395 109.758 95.225 114.66 92.395"/><polygon class="cls-1" points="81.297 74.191 81.297 69.748 77.45 67.526 73.602 69.748 73.602 74.191 77.45 76.413 81.297 74.191"/><polygon class="cls-1" points="81.297 91.786 81.297 87.343 77.45 85.121 73.602 87.343 73.602 91.786 77.45 94.008 81.297 91.786"/><polygon class="cls-1" points="63.903 82.209 63.903 78.496 60.688 76.639 57.472 78.496 57.472 82.209 60.688 84.065 63.903 82.209"/><polygon class="cls-1" points="131.284 101.66 131.284 94.235 124.853 90.522 118.423 94.235 118.423 101.66 124.853 105.372 131.284 101.66"/><polygon class="cls-1" points="99.846 65.79 99.846 59.724 94.593 56.692 89.34 59.724 89.34 65.79 94.593 68.822 99.846 65.79"/><polygon class="cls-1" points="99.846 100.98 99.846 94.915 94.593 91.882 89.34 94.915 89.34 100.98 94.593 104.012 99.846 100.98"/><polygon class="cls-1" points="99.001 82.897 99.001 77.807 94.593 75.262 90.185 77.807 90.185 82.897 94.593 85.442 99.001 82.897"/><polygon class="cls-1" points="116.189 110.375 116.189 102.95 109.758 99.237 103.328 102.95 103.328 110.375 109.758 114.087 116.189 110.375"/><polygon class="cls-1" points="82.724 56.646 82.724 50.556 77.45 47.51 72.175 50.556 72.175 56.646 77.45 59.692 82.724 56.646"/><polygon class="cls-1" points="63.437 61.789 63.437 58.345 60.455 56.623 57.472 58.345 57.472 61.789 60.455 63.511 63.437 61.789"/><polygon class="cls-1" points="100.808 119.255 100.808 111.83 94.378 108.117 87.948 111.83 87.948 119.255 94.378 122.967 100.808 119.255"/><polygon class="cls-1" points="82.724 110.149 82.724 104.058 77.45 101.013 72.175 104.058 72.175 110.149 77.45 113.194 82.724 110.149"/><polygon class="cls-1" points="65.861 102.283 65.861 97.44 61.666 95.019 57.472 97.44 57.472 102.283 61.666 104.705 65.861 102.283"/><text class="cls-2" transform="translate(53.709 146.45078)">C<tspan class="cls-3" x="10.57031" y="0">ompañías</tspan><tspan class="cls-4"><tspan x="12.56641" y="24.62793">S</tspan><tspan class="cls-5" x="26.30176" y="24.62793">i</tspan><tspan class="cls-6" x="33.18848" y="24.62793">v</tspan><tspan class="cls-5" x="45.87793" y="24.62793">a</tspan><tspan class="cls-7" x="59.80469" y="24.62793">r</tspan></tspan></text><path class="cls-8" d="M185,143.80756V63.66627a22.59562,22.59562,0,0,0-11.29781-19.56838L104.29783,4.02724a22.59561,22.59561,0,0,0-22.59562,0L12.29781,44.09789A22.59562,22.59562,0,0,0,1,63.66627v80.14129A22.59563,22.59563,0,0,0,12.29781,163.376l69.4044,40.07064a22.59561,22.59561,0,0,0,22.59562,0l69.4044-40.07064A22.59563,22.59563,0,0,0,185,143.80756Z"/></g></g></svg>