<svg xmlns="http://www.w3.org/2000/svg" viewBox="0 0 23.44777 22.41328"><defs><style>.cls-1{fill:#f7b100;}</style></defs><title>Asset 15</title><g id="Layer_2" data-name="Layer 2"><g id="Layer_14" data-name="Layer 14"><path class="cls-1" d="M12.75875.6433,15.4876,6.17256a1.15405,1.15405,0,0,0,.86892.6313l6.1019.88666A1.154,1.154,0,0,1,23.098,9.659l-4.41537,4.30392a1.154,1.154,0,0,0-.3319,1.02148l1.04233,6.07724a1.154,1.154,0,0,1-1.67445,1.21656l-5.4577-2.86929a1.15405,1.15405,0,0,0-1.07405,0l-5.4577,2.86929A1.154,1.154,0,0,1,4.05471,21.0616L5.097,14.98436a1.154,1.154,0,0,0-.3319-1.02148L.34977,9.659A1.154,1.154,0,0,1,.98935,7.69052l6.1019-.88666a1.15405,1.15405,0,0,0,.86892-.6313L10.689.6433A1.154,1.154,0,0,1,12.75875.6433Z"/></g></g></svg>